<svg width="48" height="48" viewBox="0 0 48 48" fill="none" xmlns="http://www.w3.org/2000/svg">
<path d="M14.1 42H33.9C38.374 42 42 38.373 42 33.9V27H6V33.9C6 38.373 9.626 42 14.1 42Z" fill="#0091EA"/>
<path d="M42 16H6V27H42V16Z" fill="#00B0FF"/>
<path d="M33.9 6H14.1C9.626 6 6 9.626 6 14.1V16H42V14.1C42 9.626 38.374 6 33.9 6Z" fill="#40C4FF"/>
<path d="M22.8543 18.943L24.5923 15.976L22.9943 13.249C22.5763 12.534 21.6573 12.295 20.9423 12.713C20.2273 13.131 19.9873 14.05 20.4063 14.765L22.8543 18.943Z" fill="white"/>
<path d="M26.7858 12.714C26.0698 12.295 25.1508 12.535 24.7338 13.25L16.0898 28H19.5668L27.3208 14.767C27.7398 14.052 27.4998 13.133 26.7858 12.714Z" fill="white"/>
<path d="M34.5207 32.92L26.9097 19.933L26.1467 21.236C25.7027 22.186 25.6427 23.26 25.9617 24.247L31.9337 34.438C32.2127 34.914 32.7137 35.179 33.2287 35.179C33.4857 35.179 33.7477 35.113 33.9857 34.973C34.7007 34.554 34.9397 33.635 34.5207 32.92Z" fill="white"/>
<path d="M25.4728 27.919L25.3018 27.63C25.1538 27.406 24.9898 27.196 24.8038 27.009H12.2998C11.4708 27.009 10.7998 27.674 10.7998 28.493C10.7998 29.312 11.4708 29.977 12.2998 29.977H25.6938C25.8878 29.324 25.8348 28.595 25.4728 27.919Z" fill="white"/>
<path d="M16.6601 32.961C16.1731 32.405 15.4701 32.027 14.6301 32.002H14.6261C14.3091 31.993 13.9981 32.028 13.6941 32.089L13.2071 32.92C12.7881 33.635 13.0281 34.554 13.7431 34.973C13.9811 35.113 14.2431 35.179 14.5001 35.179C15.0151 35.179 15.5171 34.913 15.7951 34.438L16.6601 32.961Z" fill="white"/>
<path d="M30.1958 27.009H35.6998C36.5288 27.009 37.1998 27.674 37.1998 28.493C37.1998 29.312 36.5288 29.977 35.6998 29.977H30.3058C30.1118 29.324 30.0098 27.196 30.1958 27.009Z" fill="white"/>
</svg>
