<svg width="96" height="96" viewBox="0 0 96 96" fill="none" xmlns="http://www.w3.org/2000/svg">
<path d="M11.9873 25.5562C11.5921 25.5562 11.2058 25.6733 10.8772 25.8929C10.5487 26.1124 10.2926 26.4245 10.1413 26.7896C9.99012 27.1547 9.95056 27.5564 10.0277 27.944C10.1047 28.3316 10.295 28.6876 10.5745 28.967C10.8539 29.2464 11.2099 29.4367 11.5975 29.5138C11.9851 29.5909 12.3868 29.5513 12.7519 29.4001C13.117 29.2489 13.429 28.9928 13.6486 28.6642C13.8681 28.3357 13.9853 27.9494 13.9853 27.5542C13.9853 27.0243 13.7748 26.5161 13.4001 26.1414C13.0254 25.7667 12.5172 25.5562 11.9873 25.5562Z" fill="#EB6B20"/>
<path d="M74.2266 10.9707C73.9616 10.9707 73.7075 11.076 73.5201 11.2633C73.3328 11.4507 73.2275 11.7048 73.2275 11.9697C73.2275 12.2347 73.3328 12.4888 73.5201 12.6761C73.7075 12.8635 73.9616 12.9687 74.2266 12.9687C74.4915 12.9687 74.7456 12.8635 74.933 12.6761C75.1203 12.4888 75.2256 12.2347 75.2256 11.9697C75.2256 11.7048 75.1203 11.4507 74.933 11.2633C74.7456 11.076 74.4915 10.9707 74.2266 10.9707Z" fill="#EB6B20"/>
<path d="M47.9519 11.9893C40.8388 11.9893 33.8854 14.0985 27.971 18.0504C22.0567 22.0022 17.447 27.6191 14.725 34.1908C12.0029 40.7624 11.2907 47.9937 12.6784 54.9702C14.0661 61.9466 17.4914 68.3549 22.5211 73.3846C27.5508 78.4144 33.9591 81.8397 40.9356 83.2273C47.912 84.6151 55.1433 83.9028 61.7149 81.1808C68.2866 78.4587 73.9035 73.849 77.8553 67.9347C81.8072 62.0203 83.9165 55.0669 83.9165 47.9538C83.9165 38.4154 80.1273 29.2677 73.3827 22.523C66.638 15.7784 57.4903 11.9893 47.9519 11.9893Z" fill="#208CEB"/>
<path d="M80.08 9.99155C79.2897 9.99155 78.5171 10.2259 77.86 10.665C77.2028 11.1041 76.6906 11.7282 76.3882 12.4584C76.0857 13.1886 76.0066 13.992 76.1608 14.7672C76.315 15.5424 76.6955 16.2544 77.2544 16.8133C77.8133 17.3721 78.5253 17.7527 79.3005 17.9069C80.0756 18.0611 80.8791 17.9819 81.6093 17.6795C82.3395 17.377 82.9636 16.8649 83.4027 16.2077C83.8417 15.5506 84.0761 14.778 84.0761 13.9876C84.0898 13.4591 83.9959 12.9333 83.7999 12.4423C83.604 11.9513 83.3101 11.5052 82.9363 11.1314C82.5624 10.7576 82.1164 10.4637 81.6254 10.2677C81.1343 10.0718 80.6086 9.97781 80.08 9.99155Z" fill="#EB6B20"/>
<path d="M83.916 20.7017C83.5208 20.7017 83.1345 20.8188 82.806 21.0384C82.4774 21.2579 82.2213 21.57 82.0701 21.9351C81.9188 22.3002 81.8793 22.7019 81.9564 23.0895C82.0335 23.4771 82.2237 23.8331 82.5032 24.1125C82.7826 24.3919 83.1386 24.5822 83.5262 24.6593C83.9138 24.7364 84.3155 24.6969 84.6806 24.5456C85.0457 24.3944 85.3578 24.1383 85.5773 23.8097C85.7968 23.4812 85.914 23.0949 85.914 22.6997C85.914 22.1698 85.7035 21.6616 85.3288 21.2869C84.9541 20.9122 84.4459 20.7017 83.916 20.7017Z" fill="#EB6B20"/>
<path d="M78.1215 71.3117C77.7264 71.3117 77.3401 71.4288 77.0115 71.6484C76.6829 71.8679 76.4268 72.18 76.2756 72.5451C76.1244 72.9102 76.0848 73.3119 76.1619 73.6995C76.239 74.0871 76.4293 74.4431 76.7087 74.7225C76.9882 75.0019 77.3442 75.1922 77.7318 75.2693C78.1193 75.3464 78.5211 75.3069 78.8862 75.1556C79.2513 75.0044 79.5633 74.7483 79.7828 74.4197C80.0024 74.0912 80.1196 73.7049 80.1196 73.3097C80.1196 72.7798 79.9091 72.2716 79.5344 71.8969C79.1597 71.5222 78.6515 71.3117 78.1215 71.3117ZM13.9847 56.7061C13.2187 56.7257 12.4755 56.9708 11.848 57.4107C11.2206 57.8506 10.7368 58.4657 10.4572 59.1791C10.1775 59.8926 10.1145 60.6726 10.2759 61.4217C10.4373 62.1708 10.8161 62.8556 11.3647 63.3906C11.9134 63.9255 12.6076 64.2868 13.3605 64.4292C14.1135 64.5716 14.8917 64.4889 15.5978 64.1913C16.3039 63.8937 16.9066 63.3944 17.3305 62.7561C17.7543 62.1177 17.9805 61.3685 17.9808 60.6022C17.9547 59.5598 17.5222 58.5689 16.7756 57.8409C16.029 57.113 15.0275 56.7057 13.9847 56.7061Z" fill="#EB6B20"/>
<path d="M23.6162 82.021C23.221 82.021 22.8347 82.1382 22.5062 82.3577C22.1776 82.5773 21.9215 82.8893 21.7703 83.2544C21.619 83.6195 21.5795 84.0212 21.6566 84.4088C21.7337 84.7964 21.9239 85.1524 22.2034 85.4318C22.4828 85.7113 22.8388 85.9016 23.2264 85.9787C23.614 86.0558 24.0157 86.0162 24.3808 85.865C24.7459 85.7137 25.058 85.4577 25.2775 85.1291C25.497 84.8005 25.6142 84.4142 25.6142 84.019C25.6142 83.4891 25.4037 82.9809 25.029 82.6062C24.6543 82.2315 24.1461 82.021 23.6162 82.021Z" fill="#EB6B20"/>
<path d="M17.2813 48.9332C16.7992 48.9332 16.328 49.0762 15.9271 49.344C15.5262 49.6118 15.2138 49.9925 15.0293 50.438C14.8448 50.8834 14.7965 51.3735 14.8906 51.8463C14.9846 52.3192 15.2168 52.7535 15.5577 53.0944C15.8986 53.4353 16.333 53.6675 16.8058 53.7615C17.2786 53.8556 17.7688 53.8073 18.2142 53.6228C18.6596 53.4383 19.0403 53.1259 19.3081 52.725C19.576 52.3242 19.7189 51.8529 19.7189 51.3708C19.7216 51.0499 19.6604 50.7318 19.5388 50.4348C19.4173 50.1379 19.2378 49.8681 19.0109 49.6412C18.784 49.4143 18.5143 49.2349 18.2173 49.1133C17.9204 48.9918 17.6022 48.9305 17.2813 48.9332Z" fill="white"/>
<path d="M19.7193 63.5186C19.5256 63.5186 19.3363 63.576 19.1753 63.6835C19.0143 63.7911 18.8889 63.944 18.8148 64.1229C18.7407 64.3018 18.7213 64.4987 18.759 64.6886C18.7968 64.8785 18.8901 65.053 19.027 65.1899C19.1639 65.3268 19.3384 65.42 19.5283 65.4578C19.7182 65.4956 19.915 65.4762 20.0939 65.4021C20.2728 65.328 20.4257 65.2025 20.5333 65.0415C20.6409 64.8805 20.6983 64.6912 20.6983 64.4976C20.6983 64.2379 20.5952 63.9889 20.4116 63.8053C20.2279 63.6217 19.9789 63.5186 19.7193 63.5186Z" fill="#EB6B20"/>
<path d="M77.1641 31.4108C76.9696 31.4069 76.7784 31.4609 76.6148 31.566C76.4512 31.6712 76.3226 31.8227 76.2454 32.0012C76.1683 32.1797 76.146 32.3771 76.1815 32.5683C76.217 32.7596 76.3086 32.9359 76.4447 33.0748C76.5808 33.2137 76.7552 33.309 76.9456 33.3484C77.136 33.3878 77.3339 33.3696 77.514 33.2961C77.694 33.2227 77.8481 33.0972 77.9566 32.9358C78.0651 32.7744 78.1231 32.5844 78.1231 32.3899C78.1232 32.1336 78.0228 31.8876 77.8435 31.7046C77.6642 31.5215 77.4202 31.4161 77.1641 31.4108Z" fill="white"/>
<path d="M33.3459 69.6526C31.4664 69.6473 29.6653 68.8983 28.3362 67.5693C27.0072 66.2402 26.2582 64.4392 26.2529 62.5596V33.3484C26.2582 31.4688 27.0072 29.6677 28.3362 28.3387C29.6653 27.0096 31.4664 26.2606 33.3459 26.2554H62.5572C64.4367 26.2606 66.2378 27.0096 67.5668 28.3387C68.8959 29.6677 69.6449 31.4688 69.6502 33.3484V62.5596C69.6449 64.4392 68.8959 66.2402 67.5668 67.5693C66.2378 68.8983 64.4367 69.6473 62.5572 69.6526H33.3459Z" fill="#4985C1"/>
<path d="M62.5573 26.9348C64.2534 26.9504 65.8757 27.6312 67.0751 28.8306C68.2746 30.03 68.9553 31.6523 68.9709 33.3485V62.5597C68.9553 64.2559 68.2746 65.8781 67.0751 67.0776C65.8757 68.277 64.2534 68.9577 62.5573 68.9734H33.346C31.6499 68.9577 30.0276 68.277 28.8282 67.0776C27.6287 65.8781 26.948 64.2559 26.9324 62.5597V33.3485C26.948 31.6523 27.6287 30.03 28.8282 28.8306C30.0276 27.6312 31.6499 26.9504 33.346 26.9348H62.5573ZM62.5573 25.5562H33.346C31.2826 25.5667 29.3067 26.391 27.8476 27.8501C26.3886 29.3091 25.5642 31.2851 25.5537 33.3485V62.5597C25.5642 64.6231 26.3886 66.599 27.8476 68.0581C29.3067 69.5172 31.2826 70.3415 33.346 70.352H62.5573C64.6207 70.3415 66.5966 69.5172 68.0557 68.0581C69.5147 66.599 70.3391 64.6231 70.3496 62.5597V33.3485C70.3391 31.2851 69.5147 29.3091 68.0557 27.8501C66.5966 26.391 64.6207 25.5667 62.5573 25.5562Z" fill="#472B29"/>
<path d="M65.9343 45.9554V61.62C65.9238 62.7683 65.4602 63.8659 64.6445 64.6742C63.8288 65.4824 62.7269 65.9358 61.5786 65.9358H34.3254C33.1702 65.9358 32.0623 65.4769 31.2455 64.66C30.4286 63.8431 29.9697 62.7353 29.9697 61.58V34.3269C29.9697 33.1717 30.4286 32.0638 31.2455 31.2469C32.0623 30.4301 33.1702 29.9712 34.3254 29.9712H61.5786C62.7338 29.9712 63.8417 30.4301 64.6585 31.2469C65.4754 32.0638 65.9343 33.1717 65.9343 34.3269V45.9554Z" fill="white"/>
<path d="M65.9341 45.4164C65.8704 45.4192 65.8067 45.4088 65.7473 45.3857C65.6878 45.3626 65.6338 45.3274 65.5887 45.2823C65.5436 45.2372 65.5084 45.1831 65.4853 45.1237C65.4622 45.0642 65.4517 45.0006 65.4546 44.9369V41.1406C65.4517 41.0769 65.4622 41.0133 65.4853 40.9538C65.5084 40.8943 65.5436 40.8403 65.5887 40.7952C65.6338 40.7501 65.6878 40.7149 65.7473 40.6918C65.8067 40.6687 65.8704 40.6582 65.9341 40.6611C65.9994 40.6553 66.0653 40.6636 66.1271 40.6854C66.189 40.7071 66.2455 40.7419 66.2928 40.7873C66.3401 40.8328 66.3772 40.8878 66.4015 40.9487C66.4257 41.0097 66.4367 41.0751 66.4336 41.1406V44.9369C66.4367 45.0024 66.4257 45.0678 66.4015 45.1288C66.3772 45.1897 66.3401 45.2447 66.2928 45.2902C66.2455 45.3356 66.189 45.3703 66.1271 45.3921C66.0653 45.4139 65.9994 45.4222 65.9341 45.4164ZM65.9341 38.703C65.8704 38.7059 65.8067 38.6954 65.7473 38.6723C65.6878 38.6492 65.6338 38.614 65.5887 38.5689C65.5436 38.5238 65.5084 38.4698 65.4853 38.4103C65.4622 38.3508 65.4517 38.2872 65.4546 38.2235V36.2255C65.4517 36.1617 65.4622 36.0981 65.4853 36.0386C65.5084 35.9792 65.5436 35.9252 65.5887 35.8801C65.6338 35.835 65.6878 35.7997 65.7473 35.7766C65.8067 35.7536 65.8704 35.7431 65.9341 35.7459C65.9994 35.7401 66.0653 35.7484 66.1271 35.7702C66.189 35.792 66.2455 35.8268 66.2928 35.8722C66.3401 35.9176 66.3772 35.9726 66.4015 36.0336C66.4257 36.0945 66.4367 36.1599 66.4336 36.2255V38.2235C66.4367 38.289 66.4257 38.3544 66.4015 38.4154C66.3772 38.4763 66.3401 38.5313 66.2928 38.5768C66.2455 38.6222 66.189 38.657 66.1271 38.6787C66.0653 38.7005 65.9994 38.7088 65.9341 38.703Z" fill="#472B29"/>
<path d="M61.5787 66.4556H34.3256C33.6839 66.461 33.0475 66.3385 32.4536 66.0954C31.8597 65.8523 31.3202 65.4934 30.8664 65.0396C30.4126 64.5858 30.0537 64.0463 29.8106 63.4524C29.5675 62.8585 29.445 62.2221 29.4504 61.5804V34.3273C29.445 33.6856 29.5675 33.0492 29.8106 32.4554C30.0537 31.8615 30.4126 31.3219 30.8664 30.8681C31.3202 30.4144 31.8597 30.0555 32.4536 29.8123C33.0475 29.5692 33.6839 29.4468 34.3256 29.4521H59.0412C59.1076 29.4493 59.1738 29.4603 59.2357 29.4844C59.2975 29.5085 59.3537 29.5452 59.4007 29.5921C59.4477 29.6391 59.4843 29.6953 59.5085 29.7572C59.5326 29.819 59.5435 29.8853 59.5407 29.9516C59.5438 30.0171 59.5329 30.0826 59.5086 30.1435C59.4843 30.2044 59.4473 30.2595 59.3999 30.3049C59.3526 30.3503 59.2961 30.3851 59.2342 30.4069C59.1724 30.4286 59.1065 30.4369 59.0412 30.4311H34.3256C33.3002 30.4565 32.3239 30.8751 31.5986 31.6003C30.8733 32.3256 30.4547 33.3019 30.4294 34.3273V61.5804C30.4291 62.6232 30.8363 63.6247 31.5643 64.3713C32.2922 65.1179 33.2831 65.5504 34.3256 65.5765H61.5787C62.6385 65.5765 63.6549 65.1555 64.4044 64.4061C65.1538 63.6567 65.5748 62.6403 65.5748 61.5804V47.5942C65.569 47.5289 65.5773 47.4631 65.599 47.4012C65.6208 47.3393 65.6556 47.2828 65.701 47.2355C65.7464 47.1882 65.8015 47.1511 65.8624 47.1268C65.9233 47.1026 65.9888 47.0916 66.0543 47.0947C66.1207 47.0919 66.1869 47.1029 66.2487 47.127C66.3106 47.1511 66.3668 47.1878 66.4138 47.2347C66.4607 47.2817 66.4974 47.3379 66.5215 47.3998C66.5456 47.4617 66.5566 47.5279 66.5538 47.5942V61.5804C66.5595 62.2307 66.4339 62.8754 66.1846 63.4761C65.9353 64.0767 65.5674 64.6208 65.1029 65.076C64.6385 65.5311 64.087 65.8879 63.4814 66.1249C62.8759 66.362 62.2287 66.4745 61.5787 66.4556Z" fill="#472B29"/>
<path d="M44.5351 41.5209V44.5379H42.5371V48.0545H44.5351V59.1435H49.4103V48.0545H52.2276C52.4256 46.8906 52.559 45.7166 52.6272 44.5379H48.6311V41.9605C48.6677 41.7234 48.7853 41.5064 48.9637 41.3462C49.1422 41.1859 49.3706 41.0924 49.6101 41.0813H52.827V36.8855H49.3104C48.6747 36.7964 48.027 36.8538 47.4168 37.0531C46.8066 37.2524 46.25 37.5884 45.7894 38.0356C45.3287 38.4827 44.9763 39.0291 44.759 39.6331C44.5416 40.2371 44.465 40.8828 44.5351 41.5209Z" fill="#4985C1"/>
<path d="M49.4098 59.643H44.5346C44.4691 59.6462 44.4036 59.6352 44.3427 59.6109C44.2818 59.5866 44.2267 59.5496 44.1813 59.5023C44.1359 59.4549 44.1011 59.3984 44.0793 59.3366C44.0575 59.2747 44.0493 59.2089 44.055 59.1435V48.534H42.4966C42.4329 48.5368 42.3692 48.5264 42.3098 48.5033C42.2503 48.4802 42.1963 48.445 42.1512 48.3998C42.1061 48.3547 42.0709 48.3007 42.0478 48.2413C42.0247 48.1818 42.0142 48.1182 42.0171 48.0545V44.5379C42.0142 44.4742 42.0247 44.4106 42.0478 44.3511C42.0709 44.2917 42.1061 44.2377 42.1512 44.1925C42.1963 44.1474 42.2503 44.1122 42.3098 44.0891C42.3692 44.066 42.4329 44.0556 42.4966 44.0584H44.055V41.5209C44.0249 40.8454 44.1295 40.1708 44.3628 39.5361C44.5961 38.9015 44.9533 38.3197 45.4137 37.8245C45.9469 37.33 46.5784 36.9534 47.2669 36.7193C47.9555 36.4852 48.6856 36.3988 49.4098 36.4659H52.9063C52.9717 36.4601 53.0375 36.4684 53.0994 36.4902C53.1612 36.5119 53.2177 36.5467 53.2651 36.5921C53.3124 36.6376 53.3494 36.6926 53.3737 36.7535C53.398 36.8145 53.4089 36.8799 53.4058 36.9454V41.1413C53.4089 41.2068 53.398 41.2722 53.3737 41.3332C53.3494 41.3941 53.3124 41.4491 53.2651 41.4946C53.2177 41.54 53.1612 41.5747 53.0994 41.5965C53.0375 41.6183 52.9717 41.6266 52.9063 41.6208H49.7095C49.6004 41.6429 49.4982 41.6906 49.4114 41.7601C49.3245 41.8296 49.2554 41.9189 49.21 42.0204V44.0184H52.7265C52.8709 44.0436 53.0036 44.1135 53.1061 44.2182C53.206 44.3181 53.206 44.418 53.206 44.5979C53.1061 46.456 52.8264 48.0145 52.8264 48.1144C52.8068 48.2292 52.7442 48.3322 52.6515 48.4027C52.5588 48.4732 52.4428 48.5058 52.3269 48.494H49.9492V59.1435C49.9566 59.2145 49.9473 59.2862 49.9222 59.3529C49.897 59.4197 49.8567 59.4797 49.8044 59.5281C49.752 59.5766 49.6891 59.6122 49.6206 59.6322C49.5521 59.6521 49.4799 59.6558 49.4098 59.643ZM45.0341 58.664H48.9302V48.0545C48.9241 47.99 48.9322 47.9249 48.9541 47.8639C48.976 47.8029 49.0112 47.7475 49.057 47.7017C49.1028 47.6558 49.1582 47.6207 49.2192 47.5988C49.2802 47.5769 49.3453 47.5687 49.4098 47.5749H51.9473C52.0472 47.0754 52.1471 46.0964 52.227 45.0374H48.8303C48.7648 45.0405 48.6994 45.0296 48.6385 45.0053C48.5775 44.981 48.5225 44.944 48.4771 44.8967C48.4316 44.8493 48.3969 44.7928 48.3751 44.731C48.3533 44.6691 48.345 44.6033 48.3508 44.5379V41.9605C48.3969 41.5993 48.568 41.2656 48.8345 41.0175C49.1009 40.7693 49.4458 40.6222 49.8094 40.6018H52.5267V37.4449H49.4098C48.2096 37.3619 47.023 37.7407 46.093 38.5039C45.7284 38.8973 45.4468 39.3601 45.2648 39.8647C45.0829 40.3693 45.0044 40.9054 45.0341 41.441V44.458C45.0372 44.5235 45.0262 44.589 45.002 44.6499C44.9777 44.7108 44.9406 44.7659 44.8933 44.8113C44.846 44.8567 44.7895 44.8915 44.7276 44.9133C44.6657 44.935 44.5999 44.9433 44.5346 44.9375H42.9961V47.475H44.5346C44.5999 47.4693 44.6657 47.4775 44.7276 47.4993C44.7895 47.5211 44.846 47.5559 44.8933 47.6013C44.9406 47.6467 44.9777 47.7017 45.002 47.7627C45.0262 47.8236 45.0372 47.889 45.0341 47.9546V58.664Z" fill="#472B29"/>
</svg>
