<svg width="96" height="96" viewBox="0 0 96 96" fill="none" xmlns="http://www.w3.org/2000/svg">
<path d="M12.0221 29.4504C13.0925 29.4504 13.9602 28.5827 13.9602 27.5123C13.9602 26.4419 13.0925 25.5742 12.0221 25.5742C10.9517 25.5742 10.084 26.4419 10.084 27.5123C10.084 28.5827 10.9517 29.4504 12.0221 29.4504Z" fill="#EB6B20"/>
<path d="M74.3218 12.9073C74.8625 12.9073 75.3008 12.469 75.3008 11.9283C75.3008 11.3875 74.8625 10.9492 74.3218 10.9492C73.7811 10.9492 73.3428 11.3875 73.3428 11.9283C73.3428 12.469 73.7811 12.9073 74.3218 12.9073Z" fill="#EB6B20"/>
<path d="M48.046 83.9782C67.9418 83.9782 84.0705 67.8495 84.0705 47.9537C84.0705 28.0579 67.9418 11.9292 48.046 11.9292C28.1502 11.9292 12.0215 28.0579 12.0215 47.9537C12.0215 67.8495 28.1502 83.9782 48.046 83.9782Z" fill="#208CEB"/>
<path d="M80.1735 17.7826C82.3253 17.7826 84.0697 16.0382 84.0697 13.8864C84.0697 11.7346 82.3253 9.99023 80.1735 9.99023C78.0217 9.99023 76.2773 11.7346 76.2773 13.8864C76.2773 16.0382 78.0217 17.7826 80.1735 17.7826Z" fill="#EB6B20"/>
<path d="M84.0689 24.5759C85.1393 24.5759 86.007 23.7082 86.007 22.6378C86.007 21.5674 85.1393 20.6997 84.0689 20.6997C82.9986 20.6997 82.1309 21.5674 82.1309 22.6378C82.1309 23.7082 82.9986 24.5759 84.0689 24.5759Z" fill="#EB6B20"/>
<path d="M78.2154 75.2067C79.2858 75.2067 80.1535 74.339 80.1535 73.2686C80.1535 72.1983 79.2858 71.3306 78.2154 71.3306C77.1451 71.3306 76.2773 72.1983 76.2773 73.2686C76.2773 74.339 77.1451 75.2067 78.2154 75.2067Z" fill="#EB6B20"/>
<path d="M13.9801 64.4969C16.1319 64.4969 17.8763 62.7525 17.8763 60.6008C17.8763 58.449 16.1319 56.7046 13.9801 56.7046C11.8284 56.7046 10.084 58.449 10.084 60.6008C10.084 62.7525 11.8284 64.4969 13.9801 64.4969Z" fill="#EB6B20"/>
<path d="M23.7086 85.9162C24.779 85.9162 25.6467 85.0485 25.6467 83.9781C25.6467 82.9077 24.779 82.04 23.7086 82.04C22.6382 82.04 21.7705 82.9077 21.7705 83.9781C21.7705 85.0485 22.6382 85.9162 23.7086 85.9162Z" fill="#EB6B20"/>
<path d="M17.3761 53.8073C18.7223 53.8073 19.8137 52.716 19.8137 51.3697C19.8137 50.0235 18.7223 48.9321 17.3761 48.9321C16.0298 48.9321 14.9385 50.0235 14.9385 51.3697C14.9385 52.716 16.0298 53.8073 17.3761 53.8073Z" fill="white"/>
<path d="M19.813 65.4761C20.3537 65.4761 20.7921 65.0378 20.7921 64.4971C20.7921 63.9564 20.3537 63.5181 19.813 63.5181C19.2723 63.5181 18.834 63.9564 18.834 64.4971C18.834 65.0378 19.2723 65.4761 19.813 65.4761Z" fill="#EB6B20"/>
<path d="M77.2564 33.3682C77.7971 33.3682 78.2354 32.9299 78.2354 32.3892C78.2354 31.8485 77.7971 31.4102 77.2564 31.4102C76.7157 31.4102 76.2773 31.8485 76.2773 32.3892C76.2773 32.9299 76.7157 33.3682 77.2564 33.3682Z" fill="white"/>
<path d="M69.7439 32.0886V63.8174C69.7439 65.3647 69.1292 66.8487 68.0351 67.9428C66.941 69.037 65.457 69.6516 63.9097 69.6516H32.1809C30.6336 69.6516 29.1496 69.037 28.0555 67.9428C26.9614 66.8487 26.3467 65.3647 26.3467 63.8174V32.0886C26.3467 30.5413 26.9614 29.0573 28.0555 27.9632C29.1496 26.8691 30.6336 26.2544 32.1809 26.2544H63.9097C65.457 26.2544 66.941 26.8691 68.0351 27.9632C69.1292 29.0573 69.7439 30.5413 69.7439 32.0886Z" fill="#3231C7"/>
<path d="M69.7439 46.0549V63.8174C69.7439 65.3647 69.1292 66.8487 68.0351 67.9428C66.941 69.037 65.457 69.6516 63.9097 69.6516H32.1809C30.6336 69.6516 29.1496 69.037 28.0555 67.9428C26.9614 66.8487 26.3467 65.3647 26.3467 63.8174V32.0886C26.3467 30.5413 26.9614 29.0573 28.0555 27.9632C29.1496 26.8691 30.6336 26.2544 32.1809 26.2544H50.0433C58.4361 30.7446 65.2963 37.6395 69.7439 46.0549Z" fill="#7228AD"/>
<path d="M67.5062 68.3924C66.4817 69.1997 65.214 69.6363 63.9097 69.6312H32.181C30.6336 69.6312 29.1497 69.0165 28.0555 67.9224C26.9614 66.8282 26.3467 65.3443 26.3467 63.7969V32.0882C26.3416 30.7838 26.7782 29.5162 27.5855 28.4917C38.1664 28.5023 48.3112 32.7088 55.7949 40.1888C63.2787 47.6688 67.4903 57.8115 67.5062 68.3924Z" fill="#B11E93"/>
<path d="M59.7338 68.3921C59.7338 68.8317 59.7338 69.2313 59.7338 69.6509H32.1809C30.6336 69.6509 29.1496 69.0362 28.0555 67.942C26.9614 66.8479 26.3467 65.3639 26.3467 63.8166V36.3037H27.6054C36.1195 36.3037 44.2854 39.6832 50.3095 45.6998C56.3336 51.7163 59.7232 59.8781 59.7338 68.3921Z" fill="#DB1A58"/>
<path d="M52.0414 68.3925C52.0414 68.8121 52.0414 69.2316 52.0414 69.6512H32.1809C30.6336 69.6512 29.1496 69.0366 28.0555 67.9424C26.9614 66.8483 26.3467 65.3643 26.3467 63.817V44.0964H27.6054C30.8063 44.0833 33.9784 44.7017 36.9399 45.9163C39.9014 47.1309 42.5942 48.9178 44.8641 51.1747C47.134 53.4316 48.9363 56.1141 50.1679 59.0686C51.3995 62.0231 52.0361 65.1916 52.0414 68.3925Z" fill="#E4273E"/>
<path d="M45.1282 68.393C45.1282 68.8325 45.1282 69.2322 45.1282 69.6517H32.1809C30.6336 69.6517 29.1496 69.0371 28.0555 67.9429C26.9614 66.8488 26.3467 65.3648 26.3467 63.8175V50.9302C26.7663 50.9302 27.1659 50.9302 27.6054 50.9302C32.2424 50.9301 36.6903 52.7681 39.9747 56.0413C43.2592 59.3145 45.1123 63.756 45.1282 68.393Z" fill="#F47C22"/>
<path d="M39.2939 68.3921C39.3243 68.8112 39.3243 69.2319 39.2939 69.6509H32.1809C30.6336 69.6509 29.1496 69.0362 28.0555 67.9421C26.9614 66.8479 26.3467 65.364 26.3467 63.8166V56.7836C26.7657 56.7531 27.1864 56.7531 27.6054 56.7836C30.6916 56.7835 33.6526 58.004 35.8423 60.1787C38.0321 62.3535 39.2728 65.306 39.2939 68.3921Z" fill="#EF9922"/>
<path d="M63.9117 70.351H32.183C30.4518 70.3458 28.793 69.6557 27.5689 68.4316C26.3447 67.2074 25.6547 65.5487 25.6494 63.8175V32.0887C25.6547 30.3575 26.3447 28.6988 27.5689 27.4746C28.793 26.2505 30.4518 25.5604 32.183 25.5552H63.9117C65.6429 25.5604 67.3017 26.2505 68.5258 27.4746C69.75 28.6988 70.44 30.3575 70.4453 32.0887V63.8175C70.44 65.5487 69.75 67.2074 68.5258 68.4316C67.3017 69.6557 65.6429 70.3458 63.9117 70.351ZM32.183 26.9338C31.5053 26.9312 30.8338 27.0627 30.2072 27.3208C29.5805 27.579 29.0112 27.9586 28.532 28.4378C28.0528 28.917 27.6732 29.4863 27.4151 30.1129C27.1569 30.7395 27.0254 31.411 27.0281 32.0887V63.8175C27.0281 65.1846 27.5712 66.4958 28.5379 67.4626C29.5046 68.4293 30.8158 68.9724 32.183 68.9724H63.9117C64.5894 68.975 65.2609 68.8435 65.8875 68.5854C66.5142 68.3273 67.0835 67.9477 67.5627 67.4684C68.0419 66.9892 68.4215 66.4199 68.6796 65.7933C68.9377 65.1667 69.0693 64.4952 69.0666 63.8175V32.0887C69.0666 30.7216 68.5235 29.4104 67.5568 28.4437C66.5901 27.4769 65.2789 26.9338 63.9117 26.9338H32.183Z" fill="#472B29"/>
<path d="M48.0473 62.9989C44.1711 62.9989 42.7125 62.9989 41.254 62.9989C40.0853 62.9807 38.9289 62.7575 37.8373 62.3396C36.8972 61.9878 36.045 61.4355 35.3398 60.7212C34.6384 60.0171 34.0937 59.1728 33.7414 58.2436C33.3234 57.1521 33.1003 55.9956 33.082 54.827C33.082 53.3484 33.082 51.8899 33.082 48.0337C33.082 44.1775 33.082 42.7389 33.082 41.2403C33.1026 40.0784 33.3257 38.9289 33.7414 37.8437C34.0993 36.9238 34.65 36.0912 35.3565 35.402C36.063 34.7127 36.9089 34.1827 37.8373 33.8476C38.9289 33.4297 40.0853 33.2065 41.254 33.1883C42.7725 33.1883 44.231 33.0884 48.0473 33.0884C51.8635 33.0884 53.3021 33.0884 54.8206 33.1883C55.9889 33.2106 57.1446 33.4336 58.2372 33.8476C59.1428 34.2022 59.9653 34.7402 60.653 35.4279C61.3407 36.1156 61.8787 36.9381 62.2333 37.8437C62.6455 38.9299 62.8685 40.0788 62.8927 41.2403C62.8927 42.7788 62.8927 44.2374 62.8927 48.0337C62.8927 51.8299 62.8927 53.2885 62.8927 54.827C62.8684 55.995 62.6455 57.1504 62.2333 58.2436C61.8784 59.1763 61.3264 60.0214 60.6149 60.7212C59.9242 61.4436 59.0764 61.9973 58.1373 62.3396C57.0415 62.7424 55.8877 62.9651 54.7207 62.9989C53.3421 62.9789 51.9035 62.9989 48.0473 62.9989ZM46.7685 35.7458C44.0912 35.7458 42.6126 35.7458 41.3339 35.7458C40.4792 35.753 39.6329 35.9154 38.8364 36.2253C38.2666 36.4189 37.7523 36.748 37.3378 37.1843C36.906 37.5947 36.5774 38.1013 36.3788 38.6629C36.089 39.4713 35.9337 40.3218 35.9192 41.1804C35.9192 42.639 35.9192 43.9976 35.9192 47.8938C35.9192 51.79 35.9192 53.1286 35.9192 54.5872C35.9315 55.4461 36.0868 56.2969 36.3788 57.1047C36.5774 57.6663 36.906 58.173 37.3378 58.5833C37.7558 59.0154 38.2689 59.3438 38.8364 59.5423C39.6309 59.8594 40.4785 60.0221 41.3339 60.0218C42.8524 60.0218 44.291 60.0218 48.0473 60.0218C51.8036 60.0218 53.2422 60.0218 54.7607 60.0218C55.6148 60.0087 56.46 59.8464 57.2582 59.5423C57.8144 59.3425 58.3194 59.0218 58.7368 58.6032C59.1681 58.1808 59.5022 57.6694 59.7158 57.1047C60.0085 56.304 60.1638 55.4596 60.1753 54.6072C60.1753 53.0687 60.1753 51.6301 60.1753 47.8938C60.1753 44.1575 60.1753 42.7189 60.1753 41.1804C60.1662 40.3277 60.0107 39.483 59.7158 38.6829C59.5066 38.1266 59.1794 37.6222 58.7567 37.2043C58.3319 36.7663 57.8125 36.4314 57.2382 36.2253C56.4465 35.925 55.6074 35.7694 54.7607 35.7657C53.2621 35.7657 51.8236 35.7657 48.0473 35.7657L46.7685 35.7458Z" fill="white"/>
<path d="M48.0447 33.1468C51.841 33.1468 53.2995 33.1468 54.798 33.2467C55.9384 33.2701 57.0666 33.4863 58.1348 33.8861C59.0399 34.2324 59.8632 34.7631 60.5524 35.4445C61.2375 36.123 61.769 36.9406 62.1108 37.8422C62.5067 38.9115 62.7227 40.039 62.7502 41.1789C62.7502 42.7174 62.7502 44.1759 62.7502 47.9522C62.7502 51.7285 62.7502 53.207 62.7502 54.7255C62.6994 55.8703 62.4562 56.9983 62.0309 58.0623C61.6847 58.9722 61.1463 59.7968 60.4525 60.4799C59.7858 61.1651 58.973 61.6909 58.0748 62.0184C57.0022 62.4295 55.8666 62.6526 54.7181 62.6777C53.2596 62.6777 51.821 62.6777 47.9648 62.6777C44.1086 62.6777 42.65 62.6777 41.1715 62.6777C40.0513 62.6212 38.9494 62.3711 37.9147 61.9384C37.0105 61.6018 36.1918 61.0696 35.517 60.38C34.8319 59.7016 34.3004 58.8839 33.9586 57.9823C33.5565 56.9148 33.3403 55.7862 33.3192 54.6456C33.3192 53.1671 33.3192 51.7285 33.3192 47.8723C33.3192 44.0161 33.3192 42.5775 33.3192 41.099C33.3852 39.9802 33.635 38.8798 34.0585 37.8422C34.4003 36.9406 34.9318 36.123 35.617 35.4445C36.2969 34.7613 37.1141 34.2301 38.0146 33.8861C39.0839 33.4903 40.2114 33.2742 41.3513 33.2467C42.8698 33.2467 44.3284 33.1468 48.1446 33.1468H48.0447ZM48.1446 60.4C51.9009 60.4 53.3395 60.4 54.858 60.4C55.7444 60.3853 56.6222 60.2232 57.4554 59.9204C58.0511 59.6837 58.5892 59.3223 59.0338 58.8606C59.4783 58.3988 59.819 57.8473 60.0329 57.2431C60.3368 56.4171 60.4989 55.5456 60.5124 54.6656C60.5124 53.1271 60.5124 51.6885 60.5124 47.9522C60.5124 44.2159 60.5124 42.7573 60.5124 41.2189C60.4955 40.3392 60.3335 39.4683 60.0329 38.6414C59.8049 38.0537 59.4558 37.5205 59.0083 37.0764C58.5608 36.6324 58.0249 36.2874 57.4355 36.0639C56.6129 35.7475 55.7393 35.585 54.858 35.5844C53.3595 35.5844 51.9209 35.5844 48.1446 35.5844H46.8659C44.1685 35.5844 42.71 35.5844 41.4112 35.5844C40.5315 35.6013 39.6607 35.7633 38.8338 36.0639C38.2413 36.2859 37.7081 36.6414 37.2753 37.1029C36.8201 37.5409 36.4656 38.0727 36.2363 38.6614C35.9357 39.4883 35.7737 40.3591 35.7568 41.2388C35.7568 42.7174 35.7568 44.076 35.7568 47.9522C35.7568 51.8284 35.7568 53.207 35.7568 54.6856C35.7178 55.5487 35.819 56.4124 36.0565 57.2431C36.2785 57.8365 36.6261 58.375 37.0755 58.8215C37.5306 59.2603 38.0667 59.6064 38.654 59.8405C39.4827 60.1344 40.3524 60.2962 41.2314 60.32C42.7699 60.32 44.2085 60.32 47.9648 60.32L48.1446 60.4ZM47.9648 32.5874C44.0686 32.5874 42.65 32.5874 41.1515 32.5874C39.9573 32.6099 38.7753 32.8328 37.6549 33.2467C36.6908 33.6141 35.8181 34.1868 35.0975 34.9251C34.3551 35.6424 33.7818 36.516 33.4191 37.4825C33.0052 38.6029 32.7823 39.7849 32.7598 40.9791C32.7598 42.4776 32.7598 43.9162 32.7598 47.7724C32.7598 51.6286 32.7598 53.0872 32.7598 54.5657C32.7845 55.7597 33.0073 56.9413 33.4191 58.0623C33.7862 59.0324 34.3587 59.9116 35.0975 60.6397C35.8172 61.3743 36.6906 61.9407 37.6549 62.2981C38.7742 62.7189 39.9561 62.9485 41.1515 62.9774C42.65 62.9774 44.0886 62.9774 47.9648 62.9774C51.841 62.9774 53.2596 62.9774 54.7581 62.9774C55.953 62.9448 57.1344 62.7153 58.2546 62.2981C59.2136 61.93 60.0848 61.3651 60.8121 60.6397C61.5377 59.9009 62.1083 59.0246 62.4905 58.0623C62.9044 56.9419 63.1273 55.7599 63.1498 54.5657C63.1498 53.0872 63.1498 51.6486 63.1498 47.7724C63.1498 43.8962 63.1498 42.4776 63.1498 40.9791C63.1232 39.7853 62.9005 38.604 62.4905 37.4825C62.1129 36.5237 61.5415 35.6531 60.8121 34.9251C60.0873 34.1823 59.2071 33.6091 58.2347 33.2467C57.1198 32.8351 55.9459 32.6057 54.7581 32.5674C53.2596 32.5674 51.841 32.5674 47.9648 32.5674V32.5874ZM48.0447 59.9404C44.2884 59.9404 42.8498 59.9404 41.3513 59.9404C40.5192 59.9392 39.6938 59.7904 38.9137 59.5008C38.3824 59.3074 37.9035 58.9927 37.5151 58.5817C37.1 58.1968 36.7846 57.7169 36.596 57.1831C36.3149 56.4076 36.1663 55.5903 36.1564 54.7655C36.1564 53.3069 36.1564 51.9483 36.1564 48.0521C36.1564 44.156 36.1564 42.8173 36.1564 41.3787C36.1674 40.541 36.3159 39.7107 36.596 38.9211C36.7895 38.3956 37.1044 37.9233 37.5151 37.5425C37.9035 37.1315 38.3824 36.8168 38.9137 36.6234C39.6929 36.3305 40.5189 36.1815 41.3513 36.1838C42.6101 36.1838 44.0886 36.1838 46.766 36.1838H48.0447C51.801 36.1838 53.2396 36.1838 54.7381 36.1838C55.5628 36.1948 56.3799 36.3434 57.1557 36.6234C57.6887 36.8251 58.1724 37.1385 58.5743 37.5425C58.9789 37.9362 59.2926 38.4135 59.4934 38.9411C59.7589 39.7269 59.9005 40.5493 59.913 41.3787C59.913 42.8772 59.913 44.3358 59.913 48.0721C59.913 51.8084 59.913 53.247 59.913 54.7655C59.905 55.597 59.7564 56.4212 59.4734 57.2031C59.2728 57.7257 58.9645 58.2002 58.5687 58.5961C58.1729 58.9919 57.6983 59.3001 57.1757 59.5008C56.3941 59.7849 55.5697 59.9336 54.7381 59.9404C53.2196 59.9404 51.781 59.9404 48.0447 59.9404Z" fill="#472B29"/>
<path d="M56.3184 41.3791C55.868 41.3791 55.436 41.2001 55.1175 40.8816C54.799 40.5631 54.6201 40.1312 54.6201 39.6807C54.6201 39.2303 54.799 38.7983 55.1175 38.4798C55.436 38.1614 55.868 37.9824 56.3184 37.9824C56.5415 37.9824 56.7623 38.0264 56.9684 38.1117C57.1744 38.197 57.3616 38.3221 57.5193 38.4798C57.677 38.6376 57.8021 38.8248 57.8875 39.0308C57.9728 39.2369 58.0168 39.4577 58.0168 39.6807C58.0168 40.1312 57.8378 40.5631 57.5193 40.8816C57.2008 41.2001 56.7689 41.3791 56.3184 41.3791Z" fill="white"/>
<path d="M56.3174 38.2227C56.6058 38.2227 56.8878 38.3082 57.1277 38.4685C57.3676 38.6287 57.5545 38.8565 57.6649 39.123C57.7753 39.3896 57.8042 39.6828 57.7479 39.9658C57.6916 40.2487 57.5527 40.5086 57.3487 40.7126C57.1447 40.9166 56.8849 41.0555 56.6019 41.1118C56.319 41.168 56.0257 41.1391 55.7592 41.0288C55.4927 40.9184 55.2649 40.7314 55.1046 40.4916C54.9444 40.2517 54.8588 39.9697 54.8588 39.6812C54.8588 39.2944 55.0125 38.9234 55.286 38.6499C55.5595 38.3763 55.9305 38.2227 56.3174 38.2227ZM56.3174 37.7231C55.7875 37.7231 55.2793 37.9337 54.9045 38.3084C54.5298 38.6831 54.3193 39.1913 54.3193 39.7212C54.4199 40.1626 54.6675 40.5568 55.0214 40.8391C55.3753 41.1215 55.8147 41.2752 56.2674 41.2752C56.7202 41.2752 57.1595 41.1215 57.5134 40.8391C57.8674 40.5568 58.1149 40.1626 58.2155 39.7212C58.2155 39.1913 58.005 38.6831 57.6303 38.3084C57.2556 37.9337 56.7474 37.7231 56.2175 37.7231H56.3174Z" fill="#472B29"/>
<path d="M48.0448 39.6807C46.4079 39.6767 44.8067 40.1585 43.4437 41.065C42.0808 41.9715 41.0175 43.262 40.3883 44.7732C39.7592 46.2843 39.5925 47.9481 39.9094 49.554C40.2264 51.1599 41.0126 52.6357 42.1686 53.7945C43.3247 54.9534 44.7985 55.7432 46.4037 56.0639C48.0088 56.3847 49.673 56.2221 51.1857 55.5966C52.6983 54.9711 53.9914 53.9109 54.9012 52.5502C55.811 51.1895 56.2966 49.5894 56.2966 47.9525C56.2914 45.7638 55.4209 43.6659 53.8751 42.1163C52.3293 40.5667 50.2335 39.6912 48.0448 39.6807ZM48.0448 42.5978C49.103 42.6018 50.1363 42.9192 51.0142 43.5099C51.8922 44.1007 52.5754 44.9384 52.9776 45.9172C53.3798 46.896 53.483 47.972 53.2742 49.0094C53.0653 50.0468 52.5537 50.999 51.8041 51.7459C51.0544 52.4928 50.1003 53.0008 49.0621 53.2058C48.0239 53.4108 46.9483 53.3036 45.971 52.8977C44.9937 52.4918 44.1586 51.8055 43.5711 50.9254C42.9836 50.0452 42.6701 49.0107 42.6701 47.9525C42.6701 47.2477 42.8092 46.5497 43.0796 45.8987C43.3499 45.2478 43.7461 44.6566 44.2455 44.1591C44.7448 43.6616 45.3375 43.2676 45.9895 42.9997C46.6414 42.7317 47.3399 42.5952 48.0448 42.5978Z" fill="white"/>
<path d="M48.0458 56.4646C46.3624 56.4646 44.7167 55.9654 43.317 55.0302C41.9173 54.0949 40.8263 52.7656 40.1821 51.2103C39.5379 49.655 39.3693 47.9436 39.6977 46.2925C40.0262 44.6414 40.8368 43.1248 42.0272 41.9344C43.2175 40.744 44.7342 39.9334 46.3853 39.605C48.0364 39.2765 49.7478 39.4451 51.3031 40.0893C52.8583 40.7335 54.1877 41.8245 55.1229 43.2242C56.0582 44.624 56.5574 46.2696 56.5574 47.953C56.5574 50.2104 55.6607 52.3754 54.0644 53.9716C52.4682 55.5679 50.3032 56.4646 48.0458 56.4646ZM48.0458 39.9609C46.4651 39.9609 44.9199 40.4296 43.6056 41.3078C42.2913 42.186 41.2669 43.4342 40.662 44.8946C40.0571 46.3549 39.8989 47.9619 40.2072 49.5122C40.5156 51.0625 41.2768 52.4866 42.3945 53.6043C43.5122 54.722 44.9363 55.4832 46.4866 55.7916C48.0369 56.1 49.6439 55.9417 51.1043 55.3368C52.5646 54.7319 53.8128 53.7075 54.691 52.3932C55.5692 51.0789 56.0379 49.5337 56.0379 47.953C56.0379 45.8334 55.1959 43.8006 53.6971 42.3017C52.1983 40.8029 50.1654 39.9609 48.0458 39.9609ZM48.0458 53.5875C46.941 53.5874 45.861 53.2603 44.9419 52.6473C44.0227 52.0344 43.3057 51.163 42.8811 50.143C42.4565 49.1231 42.3434 48.0003 42.5561 46.9162C42.7687 45.832 43.2976 44.8352 44.076 44.0512C44.8544 43.2672 45.8475 42.7313 46.9301 42.5109C48.0127 42.2906 49.1362 42.3957 50.1592 42.813C51.1821 43.2303 52.0586 43.9411 52.6781 44.8559C53.2976 45.7706 53.6324 46.8483 53.6403 47.953C53.6403 49.4368 53.0509 50.8598 52.0017 51.9089C50.9525 52.9581 49.5295 53.5475 48.0458 53.5475V53.5875ZM48.0458 42.878C47.0316 42.8741 46.0392 43.1717 45.1945 43.7332C44.3499 44.2946 43.6912 45.0944 43.3022 46.031C42.9132 46.9676 42.8114 47.9988 43.0098 48.9934C43.2082 49.988 43.6977 50.9011 44.4163 51.6169C45.1348 52.3326 46.0499 52.8186 47.0453 53.013C48.0407 53.2075 49.0714 53.1016 50.0064 52.7089C50.9415 52.3163 51.7388 51.6545 52.2969 50.8076C52.8549 49.9608 53.1487 48.9672 53.1408 47.953C53.1408 46.5999 52.6046 45.3019 51.6497 44.3432C50.6948 43.3846 49.3989 42.8433 48.0458 42.8381V42.878Z" fill="#472B29"/>
</svg>
