<svg width="206" height="87" viewBox="0 0 206 87" fill="none" xmlns="http://www.w3.org/2000/svg">
<circle cx="169.403" cy="28.5612" r="9.31997" fill="#EB6B20"/>
<circle cx="178.422" cy="5.11095" r="5.11095" fill="#EB6B20"/>
<circle cx="188.644" cy="18.9407" r="2.7058" fill="#EB6B20"/>
<g filter="url(#filter0_b_69_132)">
<path d="M35.5136 78.9472L22.4074 80.6384L20.822 74.6666H14.7973L13.4761 80.6384L0 79.3172L10.5167 44.1207L25.2083 43.3808L35.5136 78.9472ZM19.8707 66.5809L17.8625 57.3854L15.9071 66.5809H19.8707Z" fill="white"/>
<path d="M70.578 61.5604C70.578 64.238 70.0759 66.7923 69.0718 69.2233C68.0853 71.6543 66.5968 73.7858 64.6062 75.6178L68.2527 79.9513L58.5816 86.1874L56.3091 79.9513C55.6397 80.0923 54.9615 80.198 54.2745 80.2684C53.6051 80.3389 52.9269 80.3741 52.2399 80.3741C50.5487 80.3741 48.9281 80.1627 47.3779 79.7399C45.8277 79.3172 44.3744 78.727 43.018 77.9696C41.6615 77.1945 40.4284 76.2608 39.3186 75.1686C38.2088 74.0764 37.2488 72.861 36.4384 71.5221C35.6457 70.1833 35.0292 68.7388 34.5888 67.1886C34.166 65.6208 33.9546 63.9914 33.9546 62.3002C33.9546 60.6267 34.1572 59.0061 34.5623 57.4383C34.9851 55.8528 35.5753 54.3643 36.3327 52.9726C37.1078 51.581 38.0327 50.3126 39.1072 49.1676C40.1994 48.005 41.4149 47.0097 42.7537 46.1817C44.0925 45.3362 45.537 44.6844 47.0872 44.2264C48.6374 43.7683 50.2669 43.5393 51.9756 43.5393C54.7061 43.5393 57.2075 43.9533 59.48 44.7813C61.7701 45.6092 63.7342 46.7983 65.3725 48.3485C67.0108 49.8987 68.2879 51.7924 69.2039 54.0296C70.12 56.2492 70.578 58.7594 70.578 61.5604ZM57.736 62.3002C57.736 61.4899 57.6127 60.706 57.3661 59.9485C57.1371 59.1734 56.7936 58.4952 56.3356 57.9139C55.8775 57.3149 55.305 56.8393 54.618 56.487C53.931 56.1347 53.1383 55.9585 52.2399 55.9585C51.3591 55.9585 50.5664 56.1171 49.8617 56.4341C49.1571 56.7336 48.5493 57.1564 48.0385 57.7025C47.5452 58.2486 47.1577 58.8916 46.8758 59.6314C46.6116 60.3713 46.4795 61.1728 46.4795 62.036C46.4795 62.8463 46.594 63.6479 46.823 64.4406C47.0696 65.2157 47.4219 65.9203 47.8799 66.5545C48.338 67.171 48.9105 67.6731 49.5975 68.0606C50.2845 68.4482 51.0772 68.6419 51.9756 68.6419C52.8388 68.6419 53.6227 68.4746 54.3273 68.1399C55.0496 67.7876 55.6573 67.3208 56.1506 66.7394C56.6615 66.1581 57.049 65.4887 57.3132 64.7312C57.5951 63.9561 57.736 63.1458 57.736 62.3002Z" fill="white"/>
<path d="M103.978 44.015C103.185 50.2157 102.507 56.3901 101.943 62.538C101.379 68.6684 100.842 74.8427 100.331 81.0611L89.4974 81.8539L89.9731 77.7846C89.6208 78.1898 89.2068 78.5421 88.7311 78.8415C88.2731 79.141 87.7799 79.3876 87.2514 79.5814C86.7229 79.7576 86.1768 79.8897 85.6131 79.9778C85.0494 80.0482 84.5121 80.0746 84.0013 80.057C82.8034 80.0394 81.676 79.8104 80.619 79.37C79.5621 78.912 78.5932 78.3131 77.7124 77.5732C76.8316 76.8157 76.0389 75.9437 75.3343 74.9572C74.6296 73.9531 74.0307 72.905 73.5375 71.8128C73.0618 70.703 72.6919 69.5756 72.4277 68.4306C72.181 67.2855 72.0577 66.1757 72.0577 65.1012C72.0577 63.5157 72.0842 61.8775 72.137 60.1863C72.2075 58.4776 72.322 56.7689 72.4805 55.0601C72.639 53.3514 72.8416 51.6602 73.0883 49.9867C73.3525 48.3132 73.6784 46.7102 74.0659 45.1776C76.2151 45.2833 78.373 45.3802 80.5398 45.4683C82.7065 45.5563 84.8645 45.5828 87.0136 45.5475C86.6084 47.0801 86.2033 48.6215 85.7981 50.1717C85.4106 51.7043 85.0582 53.2545 84.7412 54.8223C84.4241 56.3725 84.1686 57.9315 83.9749 59.4993C83.7811 61.0671 83.6842 62.6526 83.6842 64.2556C83.6842 64.6255 83.7018 65.154 83.737 65.841C83.7723 66.528 83.8604 67.2063 84.0013 67.8757C84.1598 68.5451 84.3888 69.1352 84.6883 69.6461C85.0054 70.1393 85.4458 70.3859 86.0095 70.3859C86.6789 70.3859 87.2778 70.1041 87.8063 69.5404C88.3348 68.959 88.8016 68.1839 89.2068 67.2151C89.6119 66.2462 89.9555 65.1276 90.2373 63.8592C90.5368 62.5909 90.7834 61.2697 90.9772 59.8957C91.1886 58.504 91.3559 57.1036 91.4792 55.6943C91.6025 54.285 91.6906 52.9638 91.7435 51.7307C91.8139 50.48 91.858 49.3614 91.8756 48.3749C91.9108 47.3884 91.9284 46.6221 91.9284 46.076C91.9284 45.7237 91.9196 45.3802 91.902 45.0455C91.8844 44.7108 91.858 44.3673 91.8227 44.015C92.9678 44.0502 94.104 44.0766 95.2314 44.0942C96.3588 44.1118 97.495 44.1207 98.6401 44.1207C99.5209 44.1207 100.402 44.1207 101.282 44.1207C102.181 44.103 103.079 44.0678 103.978 44.015Z" fill="white"/>
<path d="M137.985 78.9472L124.879 80.6384L123.293 74.6666H117.269L115.948 80.6384L102.472 79.3172L112.988 44.1207L127.68 43.3808L137.985 78.9472ZM122.342 66.5809L120.334 57.3854L118.379 66.5809H122.342Z" fill="white"/>
<path d="M161.714 67.2151L160.604 78.9472L138.355 80.6912L139.201 42.958H152.941L150.986 67.2151H161.714Z" fill="white"/>
<path d="M206 67.6907C206 70.1041 205.577 72.1915 204.732 73.9531C203.904 75.6971 202.759 77.1416 201.297 78.2866C199.852 79.4141 198.152 80.2508 196.197 80.7969C194.259 81.3254 192.172 81.5896 189.934 81.5896C189.071 81.5896 188.12 81.4751 187.081 81.2461C186.059 81.0171 185.02 80.7352 183.963 80.4005C182.906 80.0482 181.884 79.6783 180.897 79.2907C179.929 78.8856 179.065 78.5068 178.308 78.1545L179.471 67.7964C180.968 68.6948 182.624 69.3818 184.438 69.8574C186.27 70.3155 188.067 70.5445 189.829 70.5445C190.163 70.5445 190.569 70.5357 191.044 70.518C191.52 70.4828 191.969 70.4035 192.392 70.2802C192.832 70.1393 193.202 69.9367 193.502 69.6725C193.801 69.4082 193.951 69.0295 193.951 68.5363C193.951 68.2016 193.845 67.9197 193.634 67.6907C193.422 67.4441 193.149 67.2503 192.815 67.1094C192.48 66.9508 192.101 66.8363 191.678 66.7659C191.256 66.6778 190.842 66.6161 190.436 66.5809C190.031 66.5457 189.652 66.528 189.3 66.528C188.948 66.528 188.666 66.528 188.455 66.528C186.94 66.528 185.557 66.2902 184.306 65.8146C183.073 65.339 182.007 64.6696 181.109 63.8064C180.228 62.9256 179.541 61.8686 179.048 60.6355C178.554 59.3848 178.308 58.002 178.308 56.487C178.308 54.4083 178.722 52.5499 179.55 50.9116C180.395 49.2557 181.514 47.8552 182.906 46.7102C184.315 45.5475 185.927 44.6579 187.741 44.0414C189.556 43.4248 191.432 43.1166 193.369 43.1166C194.233 43.1166 195.122 43.1518 196.038 43.2222C196.954 43.2751 197.861 43.3808 198.76 43.5393C199.676 43.6979 200.566 43.9005 201.429 44.1471C202.292 44.3937 203.111 44.702 203.886 45.0719L202.882 55.8C201.684 55.3948 200.425 55.0601 199.103 54.7959C197.8 54.514 196.523 54.3731 195.272 54.3731C195.043 54.3731 194.743 54.3819 194.374 54.3995C194.021 54.3995 193.642 54.4259 193.237 54.4788C192.85 54.514 192.453 54.5757 192.048 54.6638C191.643 54.7518 191.282 54.8751 190.965 55.0337C190.648 55.1746 190.392 55.3684 190.199 55.615C190.005 55.8616 189.917 56.1523 189.934 56.487C189.952 56.8745 190.093 57.174 190.357 57.3854C190.639 57.5968 190.991 57.7553 191.414 57.861C191.854 57.9491 192.33 57.9932 192.841 57.9932C193.369 57.9932 193.889 57.9843 194.4 57.9667C194.911 57.9315 195.386 57.9051 195.827 57.8875C196.267 57.8522 196.628 57.8434 196.91 57.861C198.319 57.9491 199.588 58.2486 200.715 58.7594C201.843 59.2703 202.794 59.9485 203.569 60.7941C204.362 61.6396 204.961 62.6526 205.366 63.8328C205.789 64.9955 206 66.2814 206 67.6907Z" fill="white"/>
<path fill-rule="evenodd" clip-rule="evenodd" d="M174.899 80.0042L176.749 44.015C176.749 44.015 174.686 47.2039 169.775 47.4768C164.863 47.7496 162.691 44.7548 162.691 44.7548L163.748 80.5855L174.899 80.0042Z" fill="white"/>
<path d="M176.749 44.015L162.691 44.7548C162.691 44.7548 164.863 47.7496 169.775 47.4768C174.686 47.2039 176.749 44.015 176.749 44.015Z" fill="#208CEB"/>
</g>
<defs>
<filter id="filter0_b_69_132" x="-8.18561" y="34.7724" width="222.371" height="59.6007" filterUnits="userSpaceOnUse" color-interpolation-filters="sRGB">
<feFlood flood-opacity="0" result="BackgroundImageFix"/>
<feGaussianBlur in="BackgroundImage" stdDeviation="4.0928"/>
<feComposite in2="SourceAlpha" operator="in" result="effect1_backgroundBlur_69_132"/>
<feBlend mode="normal" in="SourceGraphic" in2="effect1_backgroundBlur_69_132" result="shape"/>
</filter>
</defs>
</svg>
