<svg width="102" height="68" viewBox="0 0 102 68" fill="none" xmlns="http://www.w3.org/2000/svg">
<path d="M74.5044 0H57.4175V68H74.5044V0Z" fill="#F6BB42"/>
<path d="M70.1504 0H53.0635V68H70.1504V0Z" fill="#FFCE54"/>
<path d="M55.8983 55.5503H52.9473V58.2941H55.8983C56.7363 58.2941 57.392 57.666 57.392 56.9387C57.392 56.2114 56.7363 55.5503 55.8983 55.5503Z" fill="#656D78"/>
<path d="M55.8983 48.123H52.9473V50.8668H55.8983C56.7363 50.8668 57.392 50.2387 57.392 49.5115C57.392 48.7842 56.7363 48.123 55.8983 48.123Z" fill="#656D78"/>
<path d="M55.8983 40.6958H52.9473V43.4396H55.8983C56.7363 43.4396 57.392 42.8115 57.392 42.0842C57.392 41.357 56.7363 40.6958 55.8983 40.6958Z" fill="#656D78"/>
<path d="M55.8983 33.2676H52.9473V36.0114H55.8983C56.7363 36.0114 57.392 35.3833 57.392 34.656C57.392 33.9287 56.7363 33.2676 55.8983 33.2676Z" fill="#656D78"/>
<path d="M55.8983 25.8401H52.9473V28.5839H55.8983C56.7363 28.5839 57.392 27.9558 57.392 27.2285C57.392 26.5012 56.7363 25.8401 55.8983 25.8401Z" fill="#656D78"/>
<path d="M55.8983 18.4119H52.9473V21.1557H55.8983C56.7363 21.1557 57.392 20.5276 57.392 19.8003C57.392 19.073 56.7363 18.4119 55.8983 18.4119Z" fill="#656D78"/>
<path d="M55.8983 10.9846H52.9473V13.7284H55.8983C56.7363 13.7284 57.392 13.1003 57.392 12.3731C57.392 11.6458 56.7363 10.9846 55.8983 10.9846Z" fill="#656D78"/>
<path d="M39.2475 42.6558V42.1599H34.4019V42.6558C34.4019 43.2839 33.9647 43.8459 33.309 44.0442L32.4346 44.3087C32.7625 46.2591 34.6205 47.7467 36.8429 47.7467C39.0653 47.7467 40.9234 46.2591 41.2513 44.3087L40.3769 44.0442C39.6847 43.8459 39.2475 43.2839 39.2475 42.6558Z" fill="#FFC3A0"/>
<path d="M39.964 25.3171C36.2844 25.3171 33.0783 25.6808 31.4024 25.8791C30.6737 25.9783 30.018 26.3419 29.6172 26.9039L28.6335 28.2593L28.3785 28.3585C27.5405 28.7221 27.0669 29.5485 27.1762 30.375L27.7956 34.8709H45.6475C46.5948 33.4163 47.2506 26.0444 47.2506 26.0444C47.2506 26.0444 45.2832 25.3171 39.964 25.3171Z" fill="#8C5F56"/>
<path d="M27.2924 30.3977L27.9118 34.8936H37.2021C37.2021 34.8936 43.6872 31.9514 44.8894 27.5548C44.8894 27.5548 31.8101 24.6787 28.7133 28.282L28.4583 28.3812C27.6568 28.7779 27.1831 29.5713 27.2924 30.3977Z" fill="#734B46"/>
<path d="M35.1016 60.677H31.0576V64.9084H35.1016V60.677Z" fill="#FFD6B3"/>
<path d="M42.4371 60.677H38.3931V64.9084H42.4371V60.677Z" fill="#FFD6B3"/>
<path d="M35.9359 66.4307H27.0464V67.8852H35.9359V66.4307Z" fill="#FFE5D1"/>
<path d="M34.3329 63.9202V64.1847H31.8919L30.2889 63.4574C28.5037 63.4574 27.0464 64.7797 27.0464 66.3995H35.9359V63.4574L35.4988 63.259C34.9523 63.0276 34.3329 63.3913 34.3329 63.9202Z" fill="#FFC855"/>
<path d="M28.6494 63.9197C27.7022 64.4155 27.0464 65.3742 27.0464 66.4651H30.2889C30.2889 65.3742 29.6331 64.4155 28.6494 63.9197Z" fill="#00BEA5"/>
<path d="M31.8594 62.0366V64.2515L30.2563 63.5242C30.2563 62.6978 30.985 62.0366 31.8594 62.0366Z" fill="#E15050"/>
<path d="M46.4814 66.4307H37.5918V67.8852H46.4814V66.4307Z" fill="#FFE5D1"/>
<path d="M39.1948 63.9202V64.1847H41.6358L43.2389 63.4574C45.0241 63.4574 46.4814 64.7797 46.4814 66.3995H37.5918V63.4574L38.029 63.259C38.5755 63.0276 39.1948 63.3913 39.1948 63.9202Z" fill="#FFC855"/>
<path d="M44.845 63.9197C45.7923 64.4155 46.4481 65.3742 46.4481 66.4651H43.2056C43.2056 65.3742 43.8614 64.4155 44.845 63.9197Z" fill="#00BEA5"/>
<path d="M41.603 62.0366V64.2515L43.2061 63.5242C43.2061 62.6978 42.4774 62.0366 41.603 62.0366Z" fill="#E15050"/>
<path d="M30.2563 55.4463V60.6033C30.2563 61 30.6207 61.3306 31.0579 61.3306H35.1019C35.5391 61.3306 35.9034 61 35.9034 60.6033V59.1488C35.9034 58.7521 36.2677 58.4215 36.7049 58.4215C37.1421 58.4215 37.5064 58.7521 37.5064 59.1488V60.6033C37.5064 61 37.8708 61.3306 38.308 61.3306H42.3519C42.7892 61.3306 43.1535 61 43.1535 60.6033V55.4463H30.2563Z" fill="#E15050"/>
<path d="M27.8479 50.0059V54.7001C27.4107 54.7001 27.0464 55.0307 27.0464 55.4274V56.1546C27.0464 57.3778 28.1394 58.3695 29.4874 58.3695H30.2889V50.0059H27.8479Z" fill="#FFD6B3"/>
<path d="M45.6466 54.7001V50.0059H43.2056V58.3695H44.0071C45.3551 58.3695 46.4481 57.3778 46.4481 56.1546V55.4274C46.4481 55.0307 46.0837 54.7001 45.6466 54.7001Z" fill="#FFD6B3"/>
<path d="M46.6252 46.1244C46.5524 45.5624 46.0787 45.0665 45.4594 44.9343L41.7433 43.9756C41.306 43.8434 40.796 44.1078 40.6867 44.5045C40.2859 46.1574 38.6829 47.3806 36.7155 47.3806C34.7846 47.3806 33.1451 46.1574 32.7444 44.5045C32.6351 44.0748 32.1615 43.8434 31.6878 43.9756L27.9717 44.9343C27.3523 45.0996 26.9151 45.5624 26.8059 46.1244L26.3687 49.4632C26.2958 49.893 26.6601 50.2896 27.1702 50.2896H30.2669V55.4467H43.2005V50.2896H46.2973C46.8074 50.2896 47.1717 49.893 47.0988 49.4632L46.6252 46.1244Z" fill="#00BEA5"/>
<path d="M27.2795 45.2983C27.0973 45.4967 26.9516 45.7611 26.9151 46.0256L26.3687 49.3975C26.2958 49.8273 26.6601 50.224 27.1702 50.224H30.2669V48.6372C30.2669 48.2405 30.0848 47.8769 29.7933 47.6124L27.2795 45.2983Z" fill="#00AA9A"/>
<path d="M47.1403 49.3975L46.5938 46.0256C46.5574 45.7611 46.4116 45.4967 46.2295 45.2983L43.6792 47.6124C43.3877 47.8769 43.2056 48.2735 43.2056 48.6372V50.224H46.3023C46.8124 50.257 47.2132 49.8603 47.1403 49.3975Z" fill="#00AA9A"/>
<path d="M43.19 55.4463H30.2563V56.9008H43.19V55.4463Z" fill="#D24146"/>
<path d="M44.8256 34.0895V33.3623C44.8256 32.5358 44.0969 31.9077 43.2224 31.9077H30.2525C29.3416 31.9077 28.6494 32.5689 28.6494 33.3623V34.0895C27.7386 34.0895 27.0464 34.7507 27.0464 35.5441C27.0464 36.3705 27.775 36.9986 28.6494 36.9986V37.6928C28.6494 39.0482 29.5238 40.3044 30.9082 40.8664L35.2073 42.5854C35.6809 42.7837 36.2274 42.8829 36.7739 42.8829C37.3204 42.8829 37.8305 42.7837 38.3405 42.5854L42.6396 40.8664C44.024 40.3044 44.8983 39.0813 44.8983 37.6928V36.9986C45.8092 36.9986 46.5015 36.3375 46.5015 35.5441C46.4286 34.7507 45.6999 34.0895 44.8256 34.0895Z" fill="#FFE5D1"/>
<path d="M33.495 40.7011C32.5113 40.2052 31.8919 39.0813 31.8919 37.7259V33.3623C31.8919 32.5358 32.6206 31.9077 33.495 31.9077H30.2525C29.3416 31.9077 28.6494 32.5689 28.6494 33.3623V34.0895C27.7386 34.0895 27.0464 34.7507 27.0464 35.5441C27.0464 36.3705 27.775 36.9986 28.6494 36.9986V37.6928C28.6494 39.0482 29.5238 40.3044 30.9082 40.8664L35.2073 42.5854C35.6809 42.7837 36.2274 42.8829 36.7739 42.8829C37.1018 42.8829 37.3933 42.8499 37.6847 42.7507L33.495 40.7011Z" fill="#FFD6B3"/>
<path d="M32.6628 37.0185C32.2257 37.0185 31.8613 36.6879 31.8613 36.2912V35.5639C31.8613 35.1672 32.2257 34.8367 32.6628 34.8367C33.1 34.8367 33.4644 35.1672 33.4644 35.5639V36.2912C33.5008 36.6879 33.1365 37.0185 32.6628 37.0185Z" fill="#6E4141"/>
<path d="M40.7996 37.0185C40.3624 37.0185 39.998 36.6879 39.998 36.2912V35.5639C39.998 35.1672 40.3624 34.8367 40.7996 34.8367C41.2368 34.8367 41.6011 35.1672 41.6011 35.5639V36.2912C41.6011 36.6879 41.2368 37.0185 40.7996 37.0185Z" fill="#6E4141"/>
<path d="M36.8074 40.7306C35.9694 40.7306 35.1315 40.5323 34.4393 40.1686C34.0385 39.9703 33.9292 39.5075 34.1478 39.1769C34.3664 38.8133 34.8764 38.7141 35.2408 38.9124C36.1516 39.3753 37.4267 39.3753 38.3376 38.9124C38.7383 38.7141 39.2119 38.8133 39.4305 39.1769C39.6491 39.5405 39.5398 39.9703 39.1391 40.1686C38.4833 40.5323 37.6818 40.7306 36.8074 40.7306Z" fill="#E6B996"/>
<path d="M100.326 67.9734H1.69369C0.757179 67.9734 0 67.2779 0 66.4175C0 65.5572 0.757179 64.8616 1.69369 64.8616H100.306C101.243 64.8616 102 65.5572 102 66.4175C102 67.2779 101.263 67.9734 100.326 67.9734Z" fill="#208CEB"/>
</svg>
