<svg width="134" height="68" viewBox="0 0 134 68" fill="none" xmlns="http://www.w3.org/2000/svg">
<path d="M104.719 0.71141C102.614 0.237137 100.424 0 98.2332 0C91.2108 0 84.7038 2.26357 79.3995 6.53203C77.4237 8.12731 77.1231 11.0161 78.6908 12.9994L108.198 6.18711C108.756 3.6864 107.188 1.25036 104.719 0.71141Z" fill="#8D8A94"/>
<path d="M24.9008 11.9385H21.2285V48.7378H24.9008V11.9385Z" fill="#B9B7BD"/>
<path d="M32.1288 10.1248H28.4565V50.5888H32.1288V10.1248Z" fill="#B9B7BD"/>
<path d="M39.5072 10.1248H35.835V50.5888H39.5072V10.1248Z" fill="#B9B7BD"/>
<path d="M46.8822 10.1248H43.21V50.5888H46.8822V10.1248Z" fill="#B9B7BD"/>
<path d="M54.2602 15.5642H50.5879V44.9907H54.2602V15.5642Z" fill="#B9B7BD"/>
<path d="M61.4887 22.9692H57.8164V37.6933H61.4887V22.9692Z" fill="#B9B7BD"/>
<path d="M120.208 21.1555H116.536V63.4736H120.208V21.1555Z" fill="#A7A5AC"/>
<path d="M112.829 11.9385H109.157V63.4402H112.829V11.9385Z" fill="#A7A5AC"/>
<path d="M105.452 10.1248H101.779V63.4804H105.452V10.1248Z" fill="#A7A5AC"/>
<path d="M98.2265 10.1248H94.5542V63.4804H98.2265V10.1248Z" fill="#A7A5AC"/>
<path d="M90.848 10.1248H87.1758V63.4804H90.848V10.1248Z" fill="#A7A5AC"/>
<path d="M83.4701 16.0171H79.7979V63.5306H83.4701V16.0171Z" fill="#A7A5AC"/>
<path d="M76.2421 22.9692H72.5698V63.4333H76.2421V22.9692Z" fill="#A7A5AC"/>
<path d="M68.8666 30.3728H65.1943V63.4856H68.8666V30.3728Z" fill="#A7A5AC"/>
<path d="M61.4887 37.7778H57.8164V63.5396H61.4887V37.7778Z" fill="#A7A5AC"/>
<path d="M54.2606 45.0308H50.5884V63.4196H54.2606V45.0308Z" fill="#A7A5AC"/>
<path d="M46.8822 50.6223H43.21V63.4924H46.8822V50.6223Z" fill="#A7A5AC"/>
<path d="M32.2792 52.4358H28.6069V63.4734H32.2792V52.4358Z" fill="#A7A5AC"/>
<path d="M24.9008 48.8086H21.2285V63.5326H24.9008V48.8086Z" fill="#A7A5AC"/>
<path d="M17.5228 39.5913H13.8506V63.499H17.5228V39.5913Z" fill="#A7A5AC"/>
<path d="M39.5072 52.4358H35.835V63.4734H39.5072V52.4358Z" fill="#A7A5AC"/>
<path d="M131.801 67.9615H2.22505C0.994726 67.9615 0 66.9567 0 65.714C0 64.4713 0.994726 63.4666 2.22505 63.4666H131.775C133.005 63.4666 134 64.4713 134 65.714C134 66.9567 133.031 67.9615 131.801 67.9615Z" fill="#208CEB"/>
<path d="M35.8609 54.3129C22.7396 54.3129 12.0449 43.5987 12.0449 30.4053C12.0449 17.2118 22.7396 6.49756 35.8609 6.49756C41.8739 6.49756 47.6079 8.73958 52.0104 12.8356C52.0317 12.8571 52.0533 12.8787 52.0746 12.9002L67 27.8183L80.3575 14.4524C84.9533 9.27852 91.1381 6.49756 98.139 6.49756C111.282 6.49756 121.955 17.2334 121.955 30.4053C121.955 31.4185 121.139 32.2377 120.13 32.2377C119.12 32.2377 118.304 31.4185 118.304 30.4053C118.304 19.2383 109.263 10.1624 98.139 10.1624C92.2119 10.1624 86.9719 12.5122 83.0205 16.9747L68.3314 31.6556C68.31 31.6772 68.31 31.6987 68.2885 31.6987C68.267 31.7203 68.2456 31.7419 68.224 31.7633L52.0533 47.9318C47.6293 52.0709 41.8739 54.3129 35.8609 54.3129ZM35.8609 10.1624C24.7368 10.1624 15.6957 19.2383 15.6957 30.4053C15.6957 41.5723 24.7368 50.6481 35.8609 50.6481C40.9505 50.6481 45.8039 48.7295 49.5407 45.2802L64.423 30.4268L49.5192 15.5519C45.8039 12.0811 40.9505 10.1624 35.8609 10.1624Z" fill="#EB6B20"/>
<path d="M79.0731 14.943C78.6436 14.943 78.1926 14.7921 77.849 14.4688C77.0973 13.8005 77.0329 12.6363 77.6987 11.8603C83.046 5.86717 90.1113 2.71973 98.186 2.71973C101.558 2.71973 104.865 3.32335 108 4.53058C108.945 4.89707 109.417 5.95341 109.053 6.90195C108.687 7.85051 107.635 8.32477 106.69 7.9583C103.984 6.92352 101.107 6.38456 98.186 6.38456C91.1851 6.38456 85.0646 9.12241 80.426 14.3179C80.0609 14.7275 79.567 14.943 79.0731 14.943Z" fill="#FFC855"/>
</svg>
