<svg width="96" height="97" viewBox="0 0 96 97" fill="none" xmlns="http://www.w3.org/2000/svg">
<path d="M74.2271 14.7798C74.7678 14.7798 75.2061 14.3415 75.2061 13.8008C75.2061 13.2601 74.7678 12.8218 74.2271 12.8218C73.6864 12.8218 73.248 13.2601 73.248 13.8008C73.248 14.3415 73.6864 14.7798 74.2271 14.7798Z" fill="#EB6B20"/>
<path d="M47.9522 85.8498C67.848 85.8498 83.9768 69.7211 83.9768 49.8253C83.9768 29.9295 67.848 13.8008 47.9522 13.8008C28.0565 13.8008 11.9277 29.9295 11.9277 49.8253C11.9277 69.7211 28.0565 85.8498 47.9522 85.8498Z" fill="#208CEB"/>
<path d="M80.0817 19.6551C82.2335 19.6551 83.9779 17.9107 83.9779 15.759C83.9779 13.6072 82.2335 11.8628 80.0817 11.8628C77.9299 11.8628 76.1855 13.6072 76.1855 15.759C76.1855 17.9107 77.9299 19.6551 80.0817 19.6551Z" fill="#EB6B20"/>
<path d="M83.9781 26.4484C85.0485 26.4484 85.9162 25.5807 85.9162 24.5104C85.9162 23.44 85.0485 22.5723 83.9781 22.5723C82.9077 22.5723 82.04 23.44 82.04 24.5104C82.04 25.5807 82.9077 26.4484 83.9781 26.4484Z" fill="#EB6B20"/>
<path d="M78.1236 77.0588C79.194 77.0588 80.0617 76.1911 80.0617 75.1207C80.0617 74.0503 79.194 73.1826 78.1236 73.1826C77.0533 73.1826 76.1855 74.0503 76.1855 75.1207C76.1855 76.1911 77.0533 77.0588 78.1236 77.0588Z" fill="#EB6B20"/>
<path d="M13.8864 66.3695C16.0382 66.3695 17.7826 64.6251 17.7826 62.4733C17.7826 60.3215 16.0382 58.5771 13.8864 58.5771C11.7346 58.5771 9.99023 60.3215 9.99023 62.4733C9.99023 64.6251 11.7346 66.3695 13.8864 66.3695Z" fill="#EB6B20"/>
<path d="M17.2833 53.7214C18.6296 53.7214 19.7209 52.63 19.7209 51.2838C19.7209 49.9375 18.6296 48.8462 17.2833 48.8462C15.9371 48.8462 14.8457 49.9375 14.8457 51.2838C14.8457 52.63 15.9371 53.7214 17.2833 53.7214Z" fill="white"/>
<path d="M76.6646 35.2199C77.4702 35.2199 78.1232 34.5668 78.1232 33.7613C78.1232 32.9558 77.4702 32.3027 76.6646 32.3027C75.8591 32.3027 75.2061 32.9558 75.2061 33.7613C75.2061 34.5668 75.8591 35.2199 76.6646 35.2199Z" fill="white"/>
<path d="M21.6793 83.8718C22.7497 83.8718 23.6174 83.0041 23.6174 81.9337C23.6174 80.8633 22.7497 79.9956 21.6793 79.9956C20.6089 79.9956 19.7412 80.8633 19.7412 81.9337C19.7412 83.0041 20.6089 83.8718 21.6793 83.8718Z" fill="#EB6B20"/>
<path d="M62.2786 72.2036H31.6687C29.7945 72.1984 27.9985 71.4515 26.6732 70.1262C25.3479 68.8008 24.601 67.0049 24.5957 65.1306V34.5207C24.5957 32.643 25.3402 30.8419 26.6661 29.5123C27.992 28.1827 29.791 27.433 31.6687 27.4277H62.2786C64.1598 27.4277 65.9639 28.175 67.2941 29.5052C68.6243 30.8354 69.3716 32.6396 69.3716 34.5207V65.1306C69.3663 67.0083 68.6167 68.8073 67.287 70.1332C65.9574 71.4591 64.1563 72.2036 62.2786 72.2036Z" fill="#FBCD59"/>
<path d="M61.5192 69.2864H32.4479C31.799 69.289 31.1561 69.1632 30.5562 68.9161C29.9562 68.669 29.4111 68.3056 28.9523 67.8468C28.4935 67.388 28.1301 66.8429 27.883 66.2429C27.6359 65.643 27.5101 65.0001 27.5127 64.3512V35.2799C27.5127 33.971 28.0327 32.7157 28.9582 31.7902C29.8837 30.8647 31.139 30.3447 32.4479 30.3447H61.5192C62.8265 30.35 64.0787 30.8716 65.0031 31.796C65.9275 32.7204 66.4491 33.9726 66.4544 35.2799V64.3512C66.4544 65.6601 65.9344 66.9154 65.0089 67.8409C64.0834 68.7664 62.8281 69.2864 61.5192 69.2864Z" fill="#F5E690"/>
<path d="M62.2786 72.2036H31.6687C29.7945 72.1984 27.9985 71.4515 26.6732 70.1262C25.3479 68.8009 24.601 67.0049 24.5957 65.1306V34.5207C24.5957 32.643 25.3402 30.8419 26.6661 29.5123C27.992 28.1827 29.791 27.433 31.6687 27.4277H62.2786C64.1598 27.4277 65.9639 28.175 67.2941 29.5052C68.6243 30.8354 69.3716 32.6396 69.3716 34.5207V65.1306C69.3663 67.0083 68.6167 68.8073 67.287 70.1332C65.9574 71.4591 64.1563 72.2036 62.2786 72.2036V72.2036Z" stroke="#472B29" stroke-width="0.543465" stroke-linecap="round" stroke-linejoin="round"/>
<path d="M27.9727 53.3816V35.5392C27.9832 34.2921 28.4874 33.0999 29.3749 32.2237C30.2624 31.3475 31.4608 30.8585 32.708 30.8638H40.4803" stroke="#472B29" stroke-width="0.391614" stroke-linecap="round" stroke-linejoin="round"/>
<path d="M40.7401 68.8267H32.748C32.1221 68.8346 31.5008 68.7179 30.9204 68.4832C30.3401 68.2486 29.8123 67.9007 29.3678 67.4599C28.9233 67.0192 28.571 66.4943 28.3315 65.9159C28.092 65.3376 27.97 64.7173 27.9727 64.0913V59.8755" stroke="#472B29" stroke-width="0.391614" stroke-linecap="round" stroke-linejoin="round"/>
<path d="M65.9354 46.4888V64.0914C65.9407 65.3386 65.4518 66.5371 64.5755 67.4245C63.6993 68.312 62.5071 68.8162 61.26 68.8268H44.9561" stroke="#472B29" stroke-width="0.391614" stroke-linecap="round" stroke-linejoin="round"/>
<path d="M58.582 30.8638H61.2594C62.4978 30.869 63.6839 31.3633 64.5596 32.239C65.4353 33.1146 65.9295 34.3008 65.9348 35.5392V41.7131" stroke="#472B29" stroke-width="0.391614" stroke-linecap="round" stroke-linejoin="round"/>
<path d="M45.2754 30.8442H54.2865" stroke="#472B29" stroke-width="0.391614" stroke-linecap="round" stroke-linejoin="round"/>
<path d="M47.0731 63.9117H46.7134C45.237 63.8383 43.8287 63.268 42.7174 62.2933C42.144 61.7879 41.4594 61.4251 40.7193 61.2343C39.8877 61.0751 39.0334 61.0751 38.2018 61.2343C37.9725 61.2902 37.7383 61.3237 37.5025 61.3342C37.2925 61.3403 37.0867 61.2742 36.9194 61.1469C36.7522 61.0197 36.6336 60.839 36.5834 60.6349C36.5834 60.3552 36.4635 60.0755 36.4036 59.7957L35.964 59.4161C33.966 59.0365 32.8471 58.517 32.5474 57.7777C32.5194 57.6595 32.5194 57.5363 32.5474 57.4181C32.5299 57.2153 32.5905 57.0135 32.7168 56.8538C32.843 56.6942 33.0254 56.5887 33.2267 56.5589C34.4569 56.2284 35.5952 55.6208 36.5544 54.7828C37.5137 53.9447 38.2686 52.8983 38.7613 51.7237C38.8503 51.59 38.909 51.4384 38.9332 51.2797C38.9574 51.1209 38.9464 50.9587 38.9011 50.8046C38.7213 50.345 37.9221 50.0853 37.4426 49.9255L37.023 49.7856C35.5444 49.1862 35.3646 48.4469 35.4445 47.9474C35.5739 47.5391 35.8562 47.1966 36.2324 46.9918C36.6085 46.787 37.0494 46.7356 37.4626 46.8485C37.8385 47.0991 38.295 47.1989 38.7413 47.1282V46.4689C38.5142 44.4523 38.7116 42.4105 39.3207 40.4748C39.8074 39.0856 40.6998 37.8746 41.8825 36.9983C43.0651 36.122 44.4835 35.6208 45.9542 35.5596H46.5936C48.7065 35.526 50.7467 36.3306 52.268 37.7974C54.266 40.195 54.4258 44.5707 54.266 46.6487L54.4258 47.6277H54.6456C55.0222 47.5779 55.3873 47.463 55.7246 47.288C55.9263 47.1877 56.1486 47.1355 56.3739 47.1355C56.5993 47.1355 56.8215 47.1877 57.0233 47.288C57.2893 47.3706 57.5246 47.5307 57.699 47.7479C57.8734 47.965 57.979 48.2293 58.0023 48.5068C58.0023 49.1662 57.5028 49.7057 56.4638 50.1253L56.0443 50.2851C55.5847 50.425 54.8255 50.6647 54.6456 51.1043C54.6092 51.2495 54.6028 51.4006 54.6269 51.5483C54.6509 51.696 54.7049 51.8373 54.7855 51.9634C55.2548 53.1008 55.9804 54.1145 56.9057 54.9254C57.8311 55.7364 58.9311 56.3228 60.1202 56.6388C60.3216 56.6686 60.504 56.7741 60.6302 56.9338C60.7565 57.0934 60.817 57.2952 60.7996 57.498C60.8276 57.6162 60.8276 57.7394 60.7996 57.8576C60.4999 58.5969 59.321 59.1364 57.1232 59.496C57.1232 59.6359 57.0233 59.8956 57.0033 59.9955C56.9833 60.0954 56.9034 60.4551 56.8435 60.6749C56.8088 60.8164 56.7396 60.9471 56.6419 61.0552C56.5443 61.1633 56.4213 61.2454 56.284 61.2943H55.9443H55.5647C54.7318 61.1495 53.8801 61.1495 53.0472 61.2943C52.3115 61.4859 51.6286 61.8411 51.0492 62.3332C49.9418 63.2961 48.5394 63.8529 47.0731 63.9117Z" fill="white" stroke="#472B29" stroke-width="0.391614" stroke-linecap="round" stroke-linejoin="round"/>
</svg>
