<svg width="50" height="50" viewBox="0 0 50 50" fill="none" xmlns="http://www.w3.org/2000/svg">
<path d="M32.2917 11.4585H28.125V14.5835H32.2917V11.4585Z" fill="#0A2D4B"/>
<path d="M32.2917 17.7085H28.125V20.8335H32.2917V17.7085Z" fill="#0A2D4B"/>
<path d="M32.2917 23.9585H28.125V27.0835H32.2917V23.9585Z" fill="#0A2D4B"/>
<path d="M30.2087 29.953V9.37484C30.2087 6.4988 27.8764 4.1665 25.0003 4.1665C22.1243 4.1665 19.792 6.4988 19.792 9.37484V29.953C17.8868 31.48 16.667 33.8259 16.667 36.4582C16.667 41.0603 20.3982 44.7915 25.0003 44.7915C29.6024 44.7915 33.3337 41.0603 33.3337 36.4582C33.3337 33.8269 32.1139 31.48 30.2087 29.953Z" fill="white"/>
<path d="M27.0837 9.375H22.917V18.75H27.0837V9.375Z" fill="#C2FFFF"/>
<path d="M27.083 32.8491V17.7085H22.9163V32.8491C21.6705 33.57 20.833 34.9158 20.833 36.4585C20.833 38.7595 22.6986 40.6252 24.9997 40.6252C27.3007 40.6252 29.1663 38.7595 29.1663 36.4585C29.1663 34.9158 28.3288 33.57 27.083 32.8491Z" fill="#EB6B20"/>
<path d="M30.2083 11.4585H28.125V14.5835H30.2083V11.4585Z" fill="#00B3D7"/>
<path d="M30.2083 17.7085H28.125V20.8335H30.2083V17.7085Z" fill="#00B3D7"/>
<path d="M30.2083 23.9585H28.125V27.0835H30.2083V23.9585Z" fill="#00B3D7"/>
</svg>
