<svg width="96" height="97" viewBox="0 0 96 97" fill="none" xmlns="http://www.w3.org/2000/svg">
<path d="M12.2428 30.465C13.3132 30.465 14.1809 29.5973 14.1809 28.527C14.1809 27.4566 13.3132 26.5889 12.2428 26.5889C11.1724 26.5889 10.3047 27.4566 10.3047 28.527C10.3047 29.5973 11.1724 30.465 12.2428 30.465Z" fill="#EB6B20"/>
<path d="M74.1817 14.0011C74.7114 14.0011 75.1408 13.5717 75.1408 13.0421C75.1408 12.5124 74.7114 12.083 74.1817 12.083C73.652 12.083 73.2227 12.5124 73.2227 13.0421C73.2227 13.5717 73.652 14.0011 74.1817 14.0011Z" fill="#EB6B20"/>
<path d="M48.0469 84.6514C67.8213 84.6514 83.8516 68.6211 83.8516 48.8467C83.8516 29.0723 67.8213 13.042 48.0469 13.042C28.2725 13.042 12.2422 29.0723 12.2422 48.8467C12.2422 68.6211 28.2725 84.6514 48.0469 84.6514Z" fill="#208CEB"/>
<path d="M79.9953 18.8564C82.1361 18.8564 83.8715 17.1209 83.8715 14.9802C83.8715 12.8394 82.1361 11.104 79.9953 11.104C77.8546 11.104 76.1191 12.8394 76.1191 14.9802C76.1191 17.1209 77.8546 18.8564 79.9953 18.8564Z" fill="#EB6B20"/>
<path d="M83.8521 25.6301C84.9225 25.6301 85.7902 24.7624 85.7902 23.692C85.7902 22.6216 84.9225 21.7539 83.8521 21.7539C82.7818 21.7539 81.9141 22.6216 81.9141 23.692C81.9141 24.7624 82.7818 25.6301 83.8521 25.6301Z" fill="#EB6B20"/>
<path d="M78.0572 75.9402C79.1276 75.9402 79.9953 75.0724 79.9953 74.0021C79.9953 72.9317 79.1276 72.064 78.0572 72.064C76.9869 72.064 76.1191 72.9317 76.1191 74.0021C76.1191 75.0724 76.9869 75.9402 78.0572 75.9402Z" fill="#EB6B20"/>
<path d="M14.1809 65.3105C16.3216 65.3105 18.0571 63.575 18.0571 61.4343C18.0571 59.2935 16.3216 57.5581 14.1809 57.5581C12.0401 57.5581 10.3047 59.2935 10.3047 61.4343C10.3047 63.575 12.0401 65.3105 14.1809 65.3105Z" fill="#EB6B20"/>
<path d="M23.8512 86.5896C24.9216 86.5896 25.7893 85.7218 25.7893 84.6515C25.7893 83.5811 24.9216 82.7134 23.8512 82.7134C22.7808 82.7134 21.9131 83.5811 21.9131 84.6515C21.9131 85.7218 22.7808 86.5896 23.8512 86.5896Z" fill="#EB6B20"/>
<path d="M17.5573 54.6614C18.8925 54.6614 19.9749 53.579 19.9749 52.2438C19.9749 50.9086 18.8925 49.8262 17.5573 49.8262C16.2221 49.8262 15.1396 50.9086 15.1396 52.2438C15.1396 53.579 16.2221 54.6614 17.5573 54.6614Z" fill="white"/>
<path d="M19.9757 66.2496C20.5053 66.2496 20.9347 65.8203 20.9347 65.2906C20.9347 64.7609 20.5053 64.3315 19.9757 64.3315C19.446 64.3315 19.0166 64.7609 19.0166 65.2906C19.0166 65.8203 19.446 66.2496 19.9757 66.2496Z" fill="#EB6B20"/>
<path d="M77.0782 34.3209C77.6079 34.3209 78.0373 33.8916 78.0373 33.3619C78.0373 32.8322 77.6079 32.4028 77.0782 32.4028C76.5485 32.4028 76.1191 32.8322 76.1191 33.3619C76.1191 33.8916 76.5485 34.3209 77.0782 34.3209Z" fill="white"/>
<path d="M34.9204 70.4255C32.6805 70.4203 30.5339 69.5281 28.95 67.9443C27.3662 66.3604 26.474 64.2138 26.4688 61.9739V35.7197C26.474 33.4798 27.3662 31.3332 28.95 29.7493C30.5339 28.1655 32.6805 27.2733 34.9204 27.2681H61.1746C63.4145 27.2733 65.5611 28.1655 67.145 29.7493C68.7288 31.3332 69.621 33.4798 69.6262 35.7197V61.9739C69.621 64.2138 68.7288 66.3604 67.145 67.9443C65.5611 69.5281 63.4145 70.4203 61.1746 70.4255H34.9204Z" fill="#472B29"/>
<path d="M61.1742 27.9475C63.2356 27.9475 65.2125 28.7664 66.6701 30.224C68.1277 31.6816 68.9465 33.6585 68.9465 35.7199V61.974C68.9465 64.0354 68.1277 66.0123 66.6701 67.4699C65.2125 68.9275 63.2356 69.7463 61.1742 69.7463H34.9201C32.8587 69.7463 30.8818 68.9275 29.4242 67.4699C27.9666 66.0123 27.1477 64.0354 27.1477 61.974V35.7199C27.1477 33.6585 27.9666 31.6816 29.4242 30.224C30.8818 28.7664 32.8587 27.9475 34.9201 27.9475H61.1742ZM61.1742 26.5889H34.9201C32.5016 26.5994 30.1852 27.5648 28.4751 29.2749C26.765 30.985 25.7996 33.3014 25.7891 35.7199V61.974C25.7996 64.3925 26.765 66.7089 28.4751 68.419C30.1852 70.1291 32.5016 71.0945 34.9201 71.105H61.1742C63.5927 71.0945 65.909 70.1291 67.6192 68.419C69.3293 66.7089 70.2947 64.3925 70.3052 61.974V35.7199C70.2947 33.3014 69.3293 30.985 67.6192 29.2749C65.909 27.5648 63.5927 26.5994 61.1742 26.5889Z" fill="#472B29"/>
<path d="M63.532 42.0732C61.4985 42.0079 59.5665 41.1696 58.1297 39.7291C56.693 38.2887 55.8596 36.3544 55.7996 34.3208H50.0453V54.6608V57.5579C49.9489 58.389 49.6141 59.1745 49.0813 59.8196C48.5484 60.4647 47.8403 60.9418 47.0423 61.1934C46.2444 61.445 45.3907 61.4604 44.5842 61.2376C43.7777 61.0149 43.0529 60.5636 42.4972 59.9381C41.9415 59.3126 41.5786 58.5396 41.4524 57.7125C41.3261 56.8854 41.4419 56.0394 41.7857 55.2767C42.1296 54.5139 42.6868 53.8669 43.3901 53.4137C44.0934 52.9605 44.9129 52.7205 45.7495 52.7227L46.0493 52.8426V46.8485H45.5697C43.5775 46.8429 41.6275 47.4225 39.9618 48.5154C38.2962 49.6084 36.9882 51.1664 36.2003 52.9962C35.4124 54.826 35.1792 56.847 35.5298 58.8081C35.8804 60.7692 36.7993 62.5842 38.1723 64.0277C39.5454 65.4712 41.3122 66.4796 43.2534 66.9277C45.1945 67.3759 47.2246 67.244 49.0915 66.5485C50.9583 65.853 52.5798 64.6245 53.7546 63.0156C54.9294 61.4066 55.6058 59.488 55.6997 57.498V45.2101C57.8783 46.9909 60.6188 47.9398 63.4321 47.8874L63.532 42.0732Z" fill="#EE3E54"/>
<path d="M55.7998 55.6202C55.7667 55.623 55.7333 55.6188 55.7019 55.608C55.6704 55.5972 55.6416 55.58 55.6172 55.5575C55.5927 55.5349 55.5733 55.5075 55.56 55.4771C55.5467 55.4466 55.5399 55.4137 55.54 55.3805V47.0287C55.5399 46.9954 55.5467 46.9625 55.56 46.9321C55.5733 46.9016 55.5927 46.8742 55.6172 46.8517C55.6416 46.8291 55.6704 46.8119 55.7019 46.8011C55.7333 46.7903 55.7667 46.7861 55.7998 46.7889C55.8634 46.7889 55.9244 46.8142 55.9693 46.8591C56.0143 46.9041 56.0396 46.9651 56.0396 47.0287V55.3805C56.0396 55.444 56.0143 55.505 55.9693 55.55C55.9244 55.595 55.8634 55.6202 55.7998 55.6202Z" fill="#472B29"/>
<path d="M45.63 67.4684C44.8578 67.4688 44.0877 67.3885 43.3322 67.2286C43.3029 67.198 43.2822 67.1601 43.2723 67.1189C43.2624 67.0776 43.2635 67.0345 43.2757 66.9939C43.2879 66.9532 43.3107 66.9166 43.3417 66.8876C43.3726 66.8587 43.4108 66.8384 43.4521 66.829C44.8863 67.1494 46.3736 67.1494 47.8078 66.829C48.1214 66.7704 48.429 66.6834 48.7269 66.5693C49.109 66.447 49.4827 66.3002 49.8458 66.1297C51.479 65.3647 52.8714 64.1669 53.8717 62.6664C54.8721 61.1658 55.4422 59.4198 55.5202 57.6181C55.5292 57.5596 55.5578 57.506 55.6014 57.466C55.645 57.426 55.701 57.4022 55.76 57.3983C55.7931 57.3955 55.8265 57.3997 55.8579 57.4105C55.8893 57.4213 55.9182 57.4385 55.9426 57.461C55.967 57.4836 55.9865 57.511 55.9998 57.5414C56.013 57.5719 56.0198 57.6048 56.0197 57.6381C56.0292 57.6707 56.0292 57.7053 56.0197 57.738C55.915 59.6151 55.302 61.4284 54.2461 62.984C53.1903 64.5396 51.7315 65.7789 50.0256 66.5693C49.6447 66.7516 49.2506 66.9052 48.8468 67.0288C48.526 67.1405 48.1991 67.2339 47.8678 67.3085C47.1293 67.4387 46.3794 67.4923 45.63 67.4684Z" fill="#472B29"/>
<path d="M41.614 55.62H41.5141C41.4851 55.6071 41.459 55.5885 41.4372 55.5653C41.4154 55.5422 41.3985 55.515 41.3873 55.4852C41.3762 55.4555 41.3711 55.4238 41.3722 55.3921C41.3734 55.3603 41.3809 55.3291 41.3943 55.3003C41.7453 54.468 42.3349 53.7582 43.0887 53.2604C43.8425 52.7627 44.7268 52.4991 45.6301 52.5031H45.8698V46.8487C45.8698 46.7851 45.8951 46.7241 45.9401 46.6791C45.985 46.6342 46.046 46.6089 46.1096 46.6089C46.1732 46.6089 46.2342 46.6342 46.2791 46.6791C46.3241 46.7241 46.3494 46.7851 46.3494 46.8487V52.8427C46.3634 52.8706 46.3707 52.9014 46.3707 52.9327C46.3707 52.9639 46.3634 52.9947 46.3494 53.0226C46.3229 53.0406 46.2915 53.0503 46.2595 53.0503C46.2274 53.0503 46.1961 53.0406 46.1695 53.0226H45.71C44.8997 53.0219 44.1072 53.2604 43.4319 53.7083C42.7565 54.1561 42.2284 54.7934 41.9137 55.5401C41.8814 55.5868 41.8334 55.6204 41.7786 55.635C41.7237 55.6497 41.6654 55.6443 41.614 55.62Z" fill="#472B29"/>
<path d="M63.5321 48.1278C62.1769 48.1384 60.8285 47.9362 59.5361 47.5284C59.5059 47.5193 59.4778 47.5042 59.4535 47.4842C59.4291 47.4642 59.4089 47.4395 59.3941 47.4117C59.3792 47.3839 59.37 47.3534 59.3669 47.322C59.3639 47.2906 59.367 47.2589 59.3762 47.2287C59.3854 47.1986 59.4004 47.1705 59.4205 47.1461C59.4405 47.1218 59.4651 47.1016 59.493 47.0867C59.5208 47.0719 59.5513 47.0627 59.5827 47.0596C59.6141 47.0566 59.6457 47.0597 59.6759 47.0689C60.8408 47.4309 62.0526 47.6194 63.2724 47.6283V42.3136C61.7941 42.1779 60.3728 41.6766 59.1365 40.855C59.0957 40.8078 59.0732 40.7475 59.0732 40.6852C59.0732 40.6228 59.0957 40.5625 59.1365 40.5153C59.1587 40.493 59.1852 40.4753 59.2143 40.4632C59.2435 40.4511 59.2747 40.4448 59.3063 40.4448C59.3378 40.4448 59.3691 40.4511 59.3982 40.4632C59.4274 40.4753 59.4538 40.493 59.4761 40.5153C60.6974 41.3402 62.1203 41.8169 63.5921 41.894C63.6235 41.894 63.6547 41.9002 63.6838 41.9122C63.7129 41.9243 63.7393 41.9419 63.7616 41.9642C63.7839 41.9865 63.8015 42.0129 63.8136 42.042C63.8256 42.0711 63.8318 42.1023 63.8318 42.1338V47.948C63.8249 47.98 63.8115 48.0103 63.7924 48.0369C63.7733 48.0635 63.749 48.0859 63.7209 48.1028C63.6928 48.1196 63.6616 48.1305 63.6291 48.1349C63.5966 48.1392 63.5636 48.1368 63.5321 48.1278Z" fill="#472B29"/>
<path d="M43.6915 65.7899C40.8671 65.7899 38.1583 64.6679 36.1612 62.6708C34.164 60.6736 33.042 57.9649 33.042 55.1404C33.042 52.316 34.164 49.6073 36.1612 47.6101C38.1583 45.6129 40.8671 44.4909 43.6915 44.4909H44.191C44.3164 44.501 44.4335 44.558 44.5187 44.6506C44.6039 44.7432 44.651 44.8646 44.6506 44.9904V50.8447C44.6553 50.9131 44.6433 50.9817 44.6154 51.0444C44.5875 51.1071 44.5447 51.162 44.4907 51.2043C44.4055 51.2894 44.2914 51.3394 44.171 51.3442H43.9712H43.6915C42.6635 51.3442 41.6776 51.7526 40.9506 52.4795C40.2237 53.2064 39.8153 54.1923 39.8153 55.2204C39.8153 56.2484 40.2237 57.2343 40.9506 57.9612C41.6776 58.6882 42.6635 59.0965 43.6915 59.0965C44.643 59.0962 45.5605 58.7424 46.2657 58.1036C46.9709 57.4648 47.4136 56.5868 47.5077 55.6399V52.7828V32.4028C47.5076 32.2737 47.5575 32.1496 47.6469 32.0565C47.7363 31.9634 47.8583 31.9085 47.9873 31.9033H53.8015C53.9208 31.9072 54.0347 31.9537 54.1227 32.0343C54.2106 32.115 54.2668 32.2244 54.2811 32.3429C54.3449 34.2518 55.1278 36.0661 56.4728 37.4222C57.8178 38.7783 59.6256 39.5761 61.5339 39.6557C61.6611 39.6557 61.7831 39.7062 61.873 39.7961C61.9629 39.8861 62.0134 40.008 62.0134 40.1352V45.9495C62.0134 46.0767 61.9629 46.1986 61.873 46.2886C61.7831 46.3785 61.6611 46.429 61.5339 46.429C58.9492 46.4713 56.415 45.7103 54.2811 44.2512V55.62C54.2904 55.6795 54.2904 55.7402 54.2811 55.7998C54.1184 58.4998 52.9325 61.0361 50.965 62.8923C48.9975 64.7484 46.3964 65.7847 43.6915 65.7899Z" fill="white"/>
<path d="M53.8619 32.4029C53.9269 34.433 54.7624 36.3622 56.1986 37.7985C57.6349 39.2348 59.5641 40.0703 61.5943 40.1352V45.9495C58.7798 46.0089 56.037 45.0592 53.8619 43.2722V55.62C53.7641 57.6041 53.0863 59.5159 51.9124 61.1185C50.7384 62.7211 49.1201 63.9439 47.2578 64.6355C45.3955 65.3271 43.3713 65.457 41.4359 65.0092C39.5005 64.5613 37.7391 63.5554 36.3699 62.116C35.0008 60.6766 34.0841 58.8672 33.7335 56.9118C33.3829 54.9564 33.6138 52.9412 34.3976 51.1158C35.1814 49.2904 36.4836 47.7352 38.1428 46.6428C39.802 45.5504 41.7453 44.969 43.7319 44.9705H44.2114V50.8447H43.7319C42.8874 50.8409 42.0601 51.0826 41.3506 51.5404C40.641 51.9982 40.0799 52.6525 39.7354 53.4234C39.3909 54.1944 39.2779 55.0489 39.4103 55.8829C39.5426 56.7169 39.9145 57.4944 40.4807 58.1209C41.0468 58.7474 41.7829 59.1958 42.5993 59.4115C43.4157 59.6272 44.2773 59.601 45.079 59.336C45.8808 59.0711 46.5883 58.5787 47.1153 57.919C47.6423 57.2592 47.9663 56.4605 48.0476 55.62V52.7228V32.4029H53.8619ZM53.8619 31.4238H48.0476C47.92 31.4238 47.7936 31.4493 47.6759 31.4987C47.5582 31.5481 47.4516 31.6206 47.3623 31.7118C47.273 31.8029 47.2028 31.911 47.1557 32.0297C47.1087 32.1484 47.0859 32.2752 47.0886 32.4029V52.7228V55.56C46.9907 56.3759 46.597 57.1276 45.9821 57.6726C45.3671 58.2176 44.5736 58.5181 43.7518 58.5171C43.2852 58.553 42.8162 58.4921 42.3743 58.3381C41.9323 58.1842 41.527 57.9406 41.1836 57.6226C40.8402 57.3046 40.5663 56.9191 40.3789 56.4903C40.1916 56.0614 40.0949 55.5985 40.0949 55.1305C40.0949 54.6625 40.1916 54.1995 40.3789 53.7707C40.5663 53.3418 40.8402 52.9563 41.1836 52.6383C41.527 52.3203 41.9323 52.0767 42.3743 51.9228C42.8162 51.7689 43.2852 51.7079 43.7518 51.7438H44.2314C44.4752 51.7389 44.7091 51.6467 44.8907 51.4841C44.9919 51.3936 45.0727 51.2827 45.1278 51.1587C45.1829 51.0347 45.211 50.9005 45.2104 50.7648V44.9905C45.2058 44.7443 45.1087 44.509 44.9384 44.3312C44.7681 44.1535 44.537 44.0464 44.2913 44.0314H43.7518C41.5816 44.0284 39.4578 44.66 37.6419 45.8485C35.826 47.037 34.3972 48.7306 33.5314 50.7207C32.6656 52.7108 32.4005 54.9106 32.7689 57.0494C33.1373 59.1882 34.123 61.1726 35.6046 62.7584C37.0863 64.3442 38.9993 65.4621 41.1082 65.9747C43.2171 66.4872 45.4298 66.3719 47.474 65.6431C49.5183 64.9142 51.3048 63.6036 52.6137 61.8724C53.9226 60.1413 54.6968 58.0652 54.8409 55.8997C54.852 55.8135 54.852 55.7262 54.8409 55.64V45.1303C56.8952 46.3273 59.2369 46.9421 61.6143 46.9086C61.8705 46.9086 62.1165 46.8082 62.2996 46.6289C62.4826 46.4496 62.5881 46.2057 62.5933 45.9495V40.1352C62.5933 40.0076 62.5679 39.8812 62.5184 39.7636C62.469 39.6459 62.3965 39.5392 62.3054 39.4499C62.2142 39.3606 62.1061 39.2904 61.9874 39.2434C61.8687 39.1964 61.7419 39.1735 61.6143 39.1762C59.8246 39.0914 58.1329 38.3344 56.8772 37.0565C55.6215 35.7786 54.8943 34.0738 54.8409 32.283C54.812 32.048 54.6988 31.8315 54.5225 31.6736C54.3462 31.5156 54.1186 31.4269 53.8819 31.4238H53.8619Z" fill="#472B29"/>
<path d="M61.5942 40.9943V40.1351C59.8562 40.0495 58.1906 39.4126 56.8389 38.3169C58.0607 39.7396 59.744 40.6874 61.5942 40.9943Z" fill="#83CCB7"/>
<path d="M41.1348 58.657C41.54 59.2103 42.0691 59.661 42.6797 59.9733C43.2903 60.2855 43.9655 60.4506 44.6513 60.4552C45.7193 60.4568 46.7504 60.0642 47.5468 59.3526C48.3432 58.641 48.8489 57.6605 48.967 56.599V53.6819V33.3619H54.042C54.042 33.0422 53.9222 32.7425 53.8822 32.4028H48.048V52.7228V55.62C47.967 56.3775 47.6878 57.1003 47.2386 57.7157C46.7894 58.331 46.186 58.8171 45.4891 59.125C44.7923 59.4329 44.0266 59.5518 43.2691 59.4696C42.5117 59.3875 41.7893 59.1072 41.1747 58.657H41.1348Z" fill="#83CCB7"/>
<path d="M34.501 56.0999C34.5081 53.4939 35.5153 50.9901 37.3148 49.1051C39.1142 47.2202 41.5686 46.0979 44.1715 45.9699V44.9909H43.6919C41.6155 44.9803 39.5857 45.6068 37.8765 46.786C36.1673 47.9651 34.8609 49.6401 34.1334 51.585C33.406 53.5299 33.2926 55.6511 33.8085 57.6625C34.3244 59.6738 35.4448 61.4786 37.0185 62.8333C35.3892 60.9692 34.4943 58.5757 34.501 56.0999Z" fill="#83CCB7"/>
<path d="M49.0064 45.2102C48.9749 45.2102 48.9437 45.204 48.9146 45.1919C48.8855 45.1799 48.8591 45.1622 48.8368 45.1399C48.8146 45.1177 48.7969 45.0912 48.7849 45.0621C48.7728 45.0331 48.7666 45.0019 48.7666 44.9704V33.3618C48.7666 33.3303 48.7728 33.2992 48.7849 33.2701C48.7969 33.241 48.8146 33.2146 48.8368 33.1923C48.8591 33.17 48.8855 33.1524 48.9146 33.1403C48.9437 33.1283 48.9749 33.1221 49.0064 33.1221H54.0414C54.105 33.1221 54.166 33.1473 54.2109 33.1923C54.2559 33.2373 54.2812 33.2982 54.2812 33.3618C54.2812 33.4254 54.2559 33.4864 54.2109 33.5314C54.166 33.5763 54.105 33.6016 54.0414 33.6016H49.2661V44.9704C49.2662 45.0036 49.2594 45.0365 49.2461 45.067C49.2329 45.0975 49.2134 45.1249 49.189 45.1474C49.1645 45.17 49.1357 45.1872 49.1043 45.198C49.0728 45.2088 49.0395 45.2129 49.0064 45.2102Z" fill="#472B29"/>
<path d="M49.0064 53.9217C48.9749 53.9217 48.9437 53.9155 48.9146 53.9034C48.8855 53.8914 48.8591 53.8737 48.8368 53.8514C48.8146 53.8292 48.7969 53.8028 48.7849 53.7737C48.7728 53.7446 48.7666 53.7134 48.7666 53.6819V46.8487C48.7712 46.7866 48.798 46.7283 48.842 46.6843C48.886 46.6402 48.9443 46.6135 49.0064 46.6089C49.0719 46.6087 49.1351 46.6333 49.1833 46.6778C49.2315 46.7222 49.2611 46.7833 49.2661 46.8487V53.602C49.2804 53.641 49.2843 53.683 49.2774 53.724C49.2706 53.7649 49.2532 53.8034 49.227 53.8356C49.2009 53.8678 49.1668 53.8927 49.1281 53.9078C49.0894 53.9229 49.0475 53.9277 49.0064 53.9217Z" fill="#472B29"/>
<path d="M44.6509 60.6952C44.5873 60.6952 44.5263 60.67 44.4814 60.625C44.4364 60.5801 44.4111 60.5191 44.4111 60.4555C44.4157 60.3934 44.4425 60.3351 44.4865 60.2911C44.5305 60.2471 44.5888 60.2203 44.6509 60.2157C45.6544 60.2194 46.6226 59.8453 47.3629 59.1678C48.1033 58.4904 48.5617 57.5592 48.647 56.5593V55.1807C48.647 55.1171 48.6722 55.0561 48.7172 55.0111C48.7621 54.9662 48.8231 54.9409 48.8867 54.9409C48.9503 54.9409 49.0113 54.9662 49.0563 55.0111C49.1012 55.0561 49.1265 55.1171 49.1265 55.1807V56.5993C49.0054 57.7092 48.4843 58.737 47.6607 59.4908C46.837 60.2446 45.7672 60.6727 44.6509 60.6952Z" fill="#472B29"/>
<path d="M40.6542 47.0087C40.608 47.0091 40.5627 46.9961 40.5237 46.9712C40.4847 46.9464 40.4537 46.9109 40.4344 46.8689C40.4139 46.8077 40.4168 46.7411 40.4427 46.682C40.4685 46.6229 40.5154 46.5756 40.5743 46.5492C41.7153 46.0658 42.9329 45.7885 44.1707 45.73C44.231 45.7298 44.2892 45.7523 44.3336 45.793C44.378 45.8337 44.4055 45.8897 44.4105 45.9498C44.4164 45.9818 44.4152 46.0147 44.4068 46.0462C44.3984 46.0776 44.3832 46.1069 44.3622 46.1317C44.3411 46.1566 44.3148 46.1765 44.2852 46.1899C44.2555 46.2034 44.2233 46.2101 44.1907 46.2095C43.0085 46.2665 41.8453 46.5302 40.7541 46.9887L40.6542 47.0087Z" fill="#472B29"/>
<path d="M34.5006 56.3394C34.437 56.3394 34.376 56.3142 34.331 56.2692C34.2861 56.2242 34.2608 56.1632 34.2608 56.0997C34.2554 54.3423 34.6985 52.6126 35.5481 51.0742C36.3977 49.5359 37.6257 48.2397 39.116 47.3083C39.1383 47.286 39.1648 47.2682 39.1939 47.2561C39.223 47.244 39.2543 47.2378 39.2858 47.2378C39.3174 47.2378 39.3486 47.244 39.3778 47.2561C39.4069 47.2682 39.4334 47.286 39.4557 47.3083C39.4774 47.3289 39.4948 47.3536 39.5066 47.3811C39.5185 47.4086 39.5246 47.4382 39.5246 47.4682C39.5246 47.4981 39.5185 47.5277 39.5066 47.5552C39.4948 47.5827 39.4774 47.6075 39.4557 47.628C38.0414 48.5259 36.8756 49.7651 36.0656 51.2315C35.2556 52.6979 34.8273 54.3445 34.8202 56.0197C34.8416 56.0645 34.8486 56.1147 34.8402 56.1636C34.8318 56.2125 34.8085 56.2575 34.7734 56.2926C34.7384 56.3277 34.6933 56.351 34.6444 56.3594C34.5956 56.3678 34.5453 56.3608 34.5006 56.3394Z" fill="#472B29"/>
</svg>
