<svg width="50" height="50" viewBox="0 0 50 50" fill="none" xmlns="http://www.w3.org/2000/svg">
<g clip-path="url(#clip0_38_1311)">
<path d="M30.9999 9C26.2592 9 22.4915 10.7442 19.4784 13.2988C16.4653 15.8534 14.1678 19.1949 12.1483 22.4766C10.1288 25.7582 8.37835 28.9928 6.58192 31.3281C4.7855 33.6635 3.06656 35 0.999893 35C0.854137 34.9982 0.709745 35.0282 0.576828 35.0881C0.443911 35.1479 0.325682 35.2361 0.23042 35.3464C0.135158 35.4568 0.0651662 35.5866 0.0253455 35.7268C-0.0144752 35.867 -0.023162 36.0143 -0.000106671 36.1582V44H1.00966C4.31966 44 6.10927 40.5605 6.10927 40.5605C6.23927 40.2705 6.50997 40.06 6.82997 40H6.91982C7.33982 39.96 7.73982 40.1805 7.91982 40.5605C7.91982 40.5605 9.65966 44 13.0097 44C16.3697 44 18.1093 40.5605 18.1093 40.5605C18.2693 40.2105 18.6297 39.9902 19.0097 39.9902C19.3997 39.9902 19.7598 40.2105 19.9198 40.5605C19.9198 40.5605 21.6497 44 25.0097 44C28.3697 44 30.1093 40.5605 30.1093 40.5605C30.2693 40.2105 30.6297 39.9902 31.0097 39.9902C31.3997 39.9902 31.7598 40.2105 31.9198 40.5605C31.9198 40.5605 33.6497 44 37.0097 44C40.3697 44 42.1093 40.5605 42.1093 40.5605C42.2693 40.2105 42.6297 39.9902 43.0097 39.9902C43.3997 39.9902 43.7498 40.2105 43.9198 40.5605C43.9198 40.5605 45.6997 44 49.0097 44H49.9999V36.168C50.0245 36.0233 50.0171 35.875 49.978 35.7336C49.9389 35.5921 49.8691 35.461 49.7737 35.3496C49.6783 35.2381 49.5595 35.149 49.4257 35.0886C49.292 35.0282 49.1466 34.9979 48.9999 35C44.2332 35 39.6879 33.3197 36.3729 30.6855C33.2281 28.1865 31.2743 24.8635 31.0761 21.3184C31.6949 21.1713 32.2945 20.8527 32.8808 20.3828C35.8269 23.4611 41.9999 21.5886 41.9999 17C41.9999 13.8409 39.9673 11.7098 37.6718 10.5449C35.3762 9.38002 32.7787 9 30.9999 9ZM30.9999 11C32.471 11 34.8736 11.37 36.7655 12.3301C38.6575 13.2902 39.9999 14.6591 39.9999 17C39.9999 20 35.3805 21.149 33.869 18.5039C33.7899 18.3655 33.6789 18.248 33.5452 18.1612C33.4114 18.0745 33.2589 18.0209 33.1003 18.005C32.9416 17.9892 32.7815 18.0115 32.6333 18.07C32.485 18.1286 32.3529 18.2218 32.2479 18.3418C31.4953 19.2019 30.875 19.4622 30.3534 19.502C29.8319 19.5417 29.3106 19.3496 28.7929 18.9551C28.2751 18.5606 27.7982 17.9701 27.4745 17.3887C27.1508 16.8073 26.9999 16.2083 26.9999 16C27.0019 15.848 26.9692 15.6975 26.9043 15.56C26.8394 15.4225 26.744 15.3016 26.6254 15.2065C26.5068 15.1114 26.368 15.0446 26.2197 15.0112C26.0714 14.9778 25.9174 14.9786 25.7694 15.0137C22.1755 15.1471 17.853 18.3842 14.8808 21.916C16.5978 19.2736 18.4945 16.7565 20.7714 14.8262C23.5082 12.5058 26.7406 11 30.9999 11ZM24.9999 23C25.5529 23 25.9999 23.447 25.9999 24C25.9999 27.593 29.8166 32.344 32.5546 34.168C33.0146 34.475 33.1389 35.0947 32.8319 35.5547C32.6399 35.8437 32.3209 36 31.9979 36C31.8079 36 31.6162 35.945 31.4452 35.832C28.3242 33.751 23.9999 28.481 23.9999 24C23.9999 23.447 24.4469 23 24.9999 23Z" fill="white"/>
</g>
<defs>
<clipPath id="clip0_38_1311">
<rect width="50" height="50" fill="white"/>
</clipPath>
</defs>
</svg>
